<svg width="56" height="137" viewBox="0 0 56 137" fill="none" xmlns="http://www.w3.org/2000/svg">
<g id="Character">
<g id="character">
<path id="Vector" d="M51.1215 117.986C51.459 118.123 51.5276 118.764 51.5505 120.039C51.5505 121.006 51.7336 122.699 50.601 123.008C49.4685 123.317 47.8097 123.111 47.1062 122.184C46.2253 121.04 45.6361 120.016 44.3778 118.598C43.2853 117.374 42.0898 116.224 41.6837 114.531C41.3119 112.998 41.6837 112.346 42.719 111.922C44.1604 111.35 46.3569 113.387 47.4722 113.724C48.4275 114.016 50.7726 117.848 51.1215 117.986Z" fill="#263238"/>
<path id="Vector_2" d="M51.1497 116.807L51.1154 118.369C50.5185 118.73 49.8341 118.921 49.1363 118.921C48.4386 118.921 47.7541 118.73 47.1572 118.369C47.0886 118.22 46.7969 116.121 46.7969 116.121L51.1497 116.807Z" fill="#FFA8A7"/>
<path id="Vector_3" d="M38.2398 126.726C38.2398 126.726 38.6574 128.099 38.8748 129.294C39.0464 130.244 39.2866 131.834 38.9377 132.537C38.5888 133.241 37.2846 133.681 35.2827 133.613C33.9842 133.573 31.9422 134.408 30.5351 135.151C29.128 135.895 26.1022 136.169 24.5921 135.958C22.8132 135.706 20.9886 134.631 20.7197 133.887C20.4509 133.144 20.8456 132.383 25.0898 130.684C25.1298 130.684 30.9813 128.911 33.0633 126.714L38.2398 126.726Z" fill="#263238"/>
<path id="Vector_4" d="M38.28 125.033C38.28 125.033 38.2456 126.177 38.2342 126.857C38.2228 127.538 37.422 128.493 35.3742 128.373C33.95 128.293 32.9605 127.887 33.0463 126.714L33.0863 124.998L38.28 125.033Z" fill="#FFA8A7"/>
<path id="Vector_5" d="M52.6368 96.0499C52.3533 93.2695 51.7958 90.524 50.9723 87.8532C50.9723 87.8532 51.6873 80.8292 52.1163 74.1598C52.5681 66.9641 52.9914 63.2576 51.5729 52.8588C51.5729 52.8588 29.4997 50.874 28.8991 59.1965C28.2985 67.5189 29.1508 88.7513 29.3453 92.4177C29.5398 96.0842 30.0946 99.3331 30.7181 105.282C31.3415 111.231 33.1147 125.021 33.1147 125.021C33.9115 125.445 34.8003 125.667 35.703 125.667C36.6056 125.667 37.4944 125.445 38.2912 125.021C38.2912 125.021 40.2989 108.399 40.2246 104.178C40.1618 101.046 39.6926 97.9346 38.8289 94.9231C38.8289 94.9231 39.4009 88.0592 39.9729 82.099C40.5449 76.1389 40.9739 73.2732 41.1169 70.6592L41.6202 70.4247C41.6202 70.4247 41.9005 80.7205 42.095 84.4041C42.2894 88.0878 42.7871 91.5941 43.6908 98.4122C44.4802 104.338 46.9054 116.922 46.9054 116.922C49.5309 118.415 51.1496 116.83 51.1496 116.83C51.1496 116.83 53.2374 101.181 52.6368 96.0499Z" fill="#37474F"/>
<path id="Vector_6" d="M41.0884 70.6879C41.0884 70.6879 46.8083 68.0338 49.6683 65.5914C49.6683 65.5914 46.9685 69.2236 43.4908 70.7851C43.4908 70.7851 41.975 83.5634 41.9864 83.306L41.5631 70.6822L41.0884 70.6879Z" fill="#263238"/>
<path id="Vector_7" d="M37.1362 23.2008L37.9942 30.8198L45.1899 30.4594L44.3948 21.5649L37.1362 23.2008Z" fill="#FFA8A7"/>
<path id="Vector_8" d="M47.9122 26.1186C50.5891 25.9928 51.9504 26.3989 53.1574 28.7097C54.3643 31.0206 54.8276 37.9245 55.2508 41.488C55.6741 45.0515 55.7713 47.5569 54.307 47.9229C52.8427 48.289 47.1343 48.4492 47.1343 48.4492L47.9122 26.1186Z" fill="#37474F"/>
<path id="Vector_9" d="M52.4254 30.0646C52.0421 27.9367 49.2337 25.6945 46.6082 26.1178L44.8293 26.421C44.5147 27.7022 41.0027 28.503 37.6451 27.7137C36.6327 27.9825 33.3037 28.606 32.4571 28.8863C30.0491 29.687 29.0252 32.0608 28.6763 39.9257C28.6763 39.9257 28.8708 57.7432 28.7735 61.2896C34.7279 63.8064 40.9798 63.8693 44.4518 63.1943C51.6818 61.7872 52.6141 58.8243 52.6141 58.8243L51.5388 50.6734C51.5388 50.6734 53.3062 34.8922 52.4254 30.0646Z" fill="#455A64"/>
<path id="Vector_10" d="M37.4162 25.7121L37.4734 26.1926C38.9292 26.5009 40.4334 26.5009 41.8892 26.1926C44.2287 25.6721 44.7034 25.0143 44.7034 25.0143L44.6519 24.4423C44.6519 24.4423 45.2239 24.2307 45.5385 25.123C45.6727 25.4806 45.7873 25.8454 45.8817 26.2155C45.8817 26.2155 46.1505 27.8571 43.3993 28.6922C42.2662 29.0534 41.0701 29.1734 39.888 29.0443C38.7058 28.9153 37.5637 28.5401 36.5354 27.9429L35.46 28.1717C35.46 28.1717 36.3924 26.021 36.6726 25.5863C36.7371 25.4653 36.835 25.3653 36.9547 25.2984C37.0744 25.2315 37.2107 25.2004 37.3476 25.2088L37.4162 25.7121Z" fill="#37474F"/>
<path id="Vector_11" d="M15.446 17.5386L1.1748 24.9916L8.2675 44.3764L21.5835 36.9177L15.446 17.5386Z" fill="#455A64"/>
<path id="Vector_12" d="M14.7939 19.437L2.81641 25.6889L9.09688 42.3567L20.2679 36.0991L14.7939 19.437Z" fill="#F5F5F5"/>
<path id="Vector_13" opacity="0.15" d="M12.2654 21.2389C12.2654 21.2389 12.1624 20.9701 12.0308 20.6669C11.8993 20.3638 10.8869 20.5354 9.8058 21.1017L7.70087 22.1942C6.59693 22.7662 5.80757 23.4869 5.93913 23.8129L6.16792 24.3849L12.2654 21.2389Z" fill="black"/>
<path id="Vector_14" d="M12.0311 18.8649C11.9568 18.659 11.522 18.6933 11.0645 18.9393L10.2408 19.3855C10.2408 19.3855 9.73172 18.1042 7.83271 18.9908C5.93369 19.8774 6.36841 21.3645 6.36841 21.3645L5.49326 21.845C5.00707 22.1139 4.66387 22.4971 4.72107 22.703L4.82975 23.0805L12.1798 19.2482L12.0311 18.8649Z" fill="url(#paint0_linear_1_2072)"/>
<path id="Vector_15" d="M11.2415 19.7234C10.5552 20.0609 10.2863 20.2268 10.4808 20.7301C10.6753 21.2335 10.9155 21.7197 10.9155 21.7197L7.6666 23.4356C7.6666 23.4356 7.39775 22.7035 7.27763 22.4232C7.15751 22.1429 6.91728 22.0057 6.40248 22.2745L6.20801 22.0686L11.3559 19.4546L11.2415 19.7234Z" fill="url(#paint1_linear_1_2072)"/>
<path id="Vector_16" opacity="0.3" d="M11.2415 19.7234C10.5552 20.0609 10.2863 20.2268 10.4808 20.7301C10.6753 21.2335 10.9155 21.7197 10.9155 21.7197L7.6666 23.4356C7.6666 23.4356 7.39775 22.7035 7.27763 22.4232C7.15751 22.1429 6.91728 22.0057 6.40248 22.2745L6.20801 22.0686L11.3559 19.4546L11.2415 19.7234Z" fill="black"/>
<path id="Vector_17" d="M12.4029 21.2675L12.1741 20.6956C12.0425 20.3638 11.0301 20.5583 9.94905 21.1303L7.8384 22.217C6.74018 22.789 5.95082 23.5098 6.07666 23.8415L6.31118 24.4135L12.4029 21.2675Z" fill="url(#paint2_linear_1_2072)"/>
<path id="Vector_18" d="M32.4685 28.8862C29.1738 29.1722 27.7724 29.7728 25.3014 34.2286C22.613 39.0734 17.4537 47.8306 16.8016 48.9403C15.8921 50.4789 15.7205 52.8184 16.5042 54.2312C17.2363 55.5525 19.5643 56.1531 22.2241 53.173C25.3643 49.6267 31.2044 40.9667 31.2044 40.9667C31.2044 40.9667 36.1349 34.4231 32.4685 28.8862Z" fill="#FFA8A7"/>
<path id="Vector_19" d="M17.8597 55.2441C15.3315 54.9409 9.4343 46.9388 7.75837 44.3248C6.43318 42.2018 4.69409 40.3673 2.64476 38.9309C-0.0264425 36.9575 0.356803 33.9202 1.52939 31.1403C1.92978 30.1794 3.30256 30.8029 3.30256 30.8029L3.78303 32.1242L4.61814 34.4121C5.19013 34.9384 5.51044 35.11 5.54476 34.9555C5.61912 34.6581 5.13294 33.4283 5.14438 32.147C5.14438 30.6084 6.23688 31.6208 6.5572 32.147C7.00172 32.9657 7.38413 33.8165 7.70118 34.6924C8.23885 36.0709 8.02149 37.4666 8.67356 38.4046C9.32563 39.3427 18.1286 47.7796 18.1286 47.7796L17.8597 55.2441Z" fill="#FFA8A7"/>
<path id="Vector_20" d="M33.0918 28.7095C31.0955 28.6637 28.6989 28.9841 26.8399 31.3979C24.981 33.8117 17.5451 46.9332 17.5451 46.9332L13.3752 43.1923C11.7488 44.2147 10.593 45.8393 10.1606 47.7111C11.2969 49.5134 12.5584 51.2336 13.9358 52.859C15.7032 54.7923 17.6709 56.1365 19.2839 55.5416C20.8969 54.9468 22.5443 53.6712 26.0163 48.8322C29.4882 43.9931 33.2806 38.2904 33.2806 38.2904C33.2806 38.2904 35.6772 32.7192 33.0918 28.7095Z" fill="#37474F"/>
<path id="Vector_21" d="M32.0626 13.8726C32.0626 13.8726 30.2666 16.5952 30.4725 16.8641C30.6784 17.1329 31.9997 17.3732 31.9997 17.3732L32.0626 13.8726Z" fill="#F28F8F"/>
<path id="Vector_22" d="M32.9033 15.6215C32.4788 15.6215 32.0639 15.4955 31.711 15.2596C31.3581 15.0236 31.0832 14.6883 30.921 14.296C30.7589 13.9038 30.7167 13.4722 30.7999 13.0559C30.8832 12.6397 31.088 12.2575 31.3886 11.9578C31.6891 11.658 32.0719 11.4542 32.4883 11.3721C32.9048 11.2899 33.3362 11.3332 33.7281 11.4965C34.1199 11.6597 34.4545 11.9355 34.6895 12.289C34.9245 12.6425 35.0494 13.0578 35.0482 13.4822C35.0467 14.0501 34.8201 14.5942 34.418 14.9953C34.0159 15.3963 33.4712 15.6215 32.9033 15.6215ZM32.9033 11.812C32.5727 11.8109 32.2492 11.9079 31.9738 12.0907C31.6984 12.2735 31.4834 12.534 31.3561 12.8391C31.2288 13.1442 31.1949 13.4802 31.2587 13.8046C31.3225 14.1289 31.4811 14.4271 31.7145 14.6612C31.9479 14.8954 32.2454 15.055 32.5696 15.1199C32.8937 15.1848 33.2299 15.1521 33.5354 15.0259C33.8409 14.8996 34.1021 14.6855 34.2859 14.4107C34.4697 14.136 34.5678 13.8128 34.5678 13.4822C34.5678 13.0403 34.3926 12.6163 34.0806 12.3032C33.7686 11.9902 33.3453 11.8135 32.9033 11.812Z" fill="#263238"/>
<path id="Vector_23" d="M37.0447 6.32793C33.4069 7.0944 32.3544 8.69598 32.0112 14.4674C31.6566 20.5076 32.2743 22.4009 33.0637 23.2131C33.6013 23.7851 36.5757 23.8652 38.0743 23.4477C39.9561 22.9329 44.2003 21.4285 46.1852 18.3912C48.5246 14.822 49.1366 9.97724 46.637 7.99243C43.125 5.19539 38.5319 6.01334 37.0447 6.32793Z" fill="#FFA8A7"/>
<path id="Vector_24" d="M37.1814 23.6189L37.0098 22.5093C35.8677 23.1218 34.5806 23.4125 33.2861 23.3501C33.9782 23.6876 35.7857 23.7905 37.1814 23.6189Z" fill="#F28F8F"/>
<path id="Vector_25" d="M30.9644 13.0317L37.4279 13.8726L37.1705 14.3244L30.9644 13.5179V13.0317Z" fill="#263238"/>
<path id="Vector_26" d="M31.4045 8.661C31.6797 8.69836 31.9597 8.68087 32.2281 8.60952C32.1238 8.87535 32.1105 9.16823 32.1902 9.44244C32.2698 9.71666 32.4381 9.95677 32.6686 10.1253C32.9049 10.2854 33.1751 10.3883 33.4581 10.426C33.741 10.4638 34.0288 10.4352 34.2988 10.3427C34.0958 10.6874 34.0324 11.0967 34.1214 11.4866C34.2272 11.8974 34.4732 12.2582 34.8168 12.5068C35.1604 12.7554 35.5801 12.8761 36.0033 12.848C36.0433 13.6945 36.0548 14.5182 36.9528 14.9014C36.9528 14.9014 37.5248 12.6707 39.4124 12.9509C41.2999 13.2312 41.5573 15.645 40.3676 17.115C39.1778 18.5851 38.0796 18.0245 38.0796 18.0188C38.1883 18.0703 38.2283 18.7853 38.2627 18.9168C38.3848 19.3396 38.5477 19.7495 38.7489 20.1409C39.1615 20.9266 39.7485 21.6075 40.4648 22.1314C40.9319 22.5322 41.4816 22.8251 42.0748 22.9892C42.668 23.1533 43.2901 23.1846 43.8968 23.0809C44.4345 22.9556 44.9371 22.7111 45.3678 22.3656C45.7984 22.0201 46.146 21.5824 46.3849 21.0847C46.4686 20.8182 46.6048 20.5712 46.7853 20.3582C47.0625 20.1608 47.3783 20.0243 47.712 19.9578C48.0852 19.8324 48.4268 19.6274 48.7132 19.3571C48.9996 19.0868 49.2239 18.7576 49.3707 18.3922C49.5175 18.0268 49.5833 17.6339 49.5636 17.2406C49.5438 16.8473 49.439 16.4629 49.2563 16.1141C49.7042 15.9987 50.1112 15.7614 50.4322 15.4285C50.7532 15.0957 50.9755 14.6803 51.0745 14.2286C51.1735 13.7769 51.1453 13.3065 50.9929 12.8699C50.8406 12.4333 50.5701 12.0475 50.2116 11.7555C50.7382 11.4159 51.1455 10.9201 51.3763 10.3375C51.6071 9.7549 51.6498 9.11469 51.4985 8.50657C51.346 8.0081 51.0682 7.55708 50.6917 7.19657C50.3152 6.83607 49.8525 6.57813 49.3479 6.4474C48.61 6.23576 48.896 6.12136 48.6672 5.40065C48.5129 4.90642 48.2189 4.4674 47.8206 4.13655C47.4736 3.86091 47.0643 3.67454 46.6285 3.59377C46.1927 3.513 45.7438 3.54028 45.321 3.67323C45.2285 3.21143 45.0094 2.78445 44.6882 2.44C44.367 2.09556 43.9563 1.84723 43.5021 1.72275C43.0873 1.5915 42.6449 1.57372 42.2208 1.67126C41.9177 1.74562 41.2999 2.0259 41.1855 2.31761C40.8023 1.9401 40.6765 1.44247 40.2132 1.10499C39.8981 0.870103 39.5366 0.705119 39.1527 0.621066C38.7688 0.537013 38.3714 0.53582 37.9871 0.617566C37.6027 0.699313 37.2402 0.862119 36.9237 1.09511C36.6073 1.32811 36.3442 1.62593 36.152 1.9687C35.8268 1.62338 35.4327 1.35023 34.9952 1.16695C34.5577 0.983677 34.0866 0.894361 33.6124 0.904793C33.1376 0.922203 32.6752 1.06126 32.2696 1.30865C31.8639 1.55604 31.5286 1.90346 31.2958 2.31761C31.0759 2.7385 30.9882 3.21602 31.0444 3.68757C31.1005 4.15913 31.2978 4.60272 31.6104 4.96021C31.0145 5.18824 30.5168 5.61712 30.2033 6.17284C30.0448 6.4736 29.9792 6.81467 30.0148 7.15277C30.0505 7.49086 30.1858 7.81075 30.4035 8.07185C30.5793 8.3182 30.827 8.50404 31.1128 8.60381C31.2087 8.62918 31.3061 8.64828 31.4045 8.661Z" fill="#263238"/>
<path id="Vector_27" d="M36.9186 16.1541L36.9815 13.6259C36.6462 13.6175 36.3214 13.7427 36.0784 13.9739C35.8355 14.205 35.6943 14.5233 35.6859 14.8585C35.6776 15.1938 35.8028 15.5186 36.0339 15.7616C36.2651 16.0046 36.5833 16.1457 36.9186 16.1541Z" fill="#263238"/>
</g>
</g>
<defs>
<linearGradient id="paint0_linear_1_2072" x1="8.44735" y1="18.6782" x2="8.44735" y2="23.0805" gradientUnits="userSpaceOnUse">
<stop stop-color="#7A4BFF"/>
<stop offset="0.953125" stop-color="#B4AEFF"/>
</linearGradient>
<linearGradient id="paint1_linear_1_2072" x1="8.78197" y1="19.4546" x2="8.78197" y2="23.4356" gradientUnits="userSpaceOnUse">
<stop stop-color="#7A4BFF"/>
<stop offset="0.953125" stop-color="#B4AEFF"/>
</linearGradient>
<linearGradient id="paint2_linear_1_2072" x1="9.23319" y1="20.5337" x2="9.23319" y2="24.4135" gradientUnits="userSpaceOnUse">
<stop stop-color="#7A4BFF"/>
<stop offset="0.953125" stop-color="#B4AEFF"/>
</linearGradient>
</defs>
</svg>
