<svg width="88" height="10" viewBox="0 0 88 10" fill="none" xmlns="http://www.w3.org/2000/svg">
<path d="M8.20739 3.1108H6.87784C6.8267 2.8267 6.73153 2.5767 6.59233 2.3608C6.45313 2.14489 6.28267 1.96165 6.08097 1.81108C5.87926 1.66051 5.65341 1.54687 5.40341 1.47017C5.15625 1.39347 4.89347 1.35511 4.61506 1.35511C4.11222 1.35511 3.66193 1.48153 3.2642 1.73438C2.86932 1.98722 2.55682 2.35795 2.3267 2.84659C2.09943 3.33523 1.9858 3.93182 1.9858 4.63636C1.9858 5.34659 2.09943 5.94602 2.3267 6.43466C2.55682 6.9233 2.87074 7.29261 3.26847 7.54261C3.66619 7.79261 4.11364 7.91761 4.6108 7.91761C4.88636 7.91761 5.14773 7.88068 5.39489 7.80682C5.64489 7.73011 5.87074 7.6179 6.07244 7.47017C6.27415 7.32244 6.4446 7.14205 6.58381 6.92898C6.72585 6.71307 6.82386 6.46591 6.87784 6.1875L8.20739 6.19176C8.13636 6.62074 7.99858 7.01562 7.79403 7.37642C7.59233 7.73438 7.33239 8.04403 7.0142 8.3054C6.69886 8.56392 6.33807 8.7642 5.93182 8.90625C5.52557 9.0483 5.08239 9.11932 4.60227 9.11932C3.84659 9.11932 3.1733 8.94034 2.58239 8.58239C1.99148 8.22159 1.52557 7.70597 1.18466 7.03551C0.846591 6.36506 0.677557 5.56534 0.677557 4.63636C0.677557 3.70455 0.848011 2.90483 1.18892 2.23722C1.52983 1.56676 1.99574 1.05256 2.58665 0.694602C3.17756 0.333807 3.84943 0.153409 4.60227 0.153409C5.06534 0.153409 5.49716 0.22017 5.89773 0.353693C6.30114 0.484375 6.66335 0.677557 6.98438 0.933239C7.3054 1.18608 7.57102 1.49574 7.78125 1.86222C7.99148 2.22585 8.13352 2.64205 8.20739 3.1108ZM17.364 4.63636C17.364 5.56818 17.1935 6.36932 16.8526 7.03977C16.5117 7.70739 16.0444 8.22159 15.4506 8.58239C14.8597 8.94034 14.1879 9.11932 13.435 9.11932C12.6793 9.11932 12.0046 8.94034 11.4109 8.58239C10.82 8.22159 10.354 7.70597 10.0131 7.03551C9.67223 6.36506 9.50178 5.56534 9.50178 4.63636C9.50178 3.70455 9.67223 2.90483 10.0131 2.23722C10.354 1.56676 10.82 1.05256 11.4109 0.694602C12.0046 0.333807 12.6793 0.153409 13.435 0.153409C14.1879 0.153409 14.8597 0.333807 15.4506 0.694602C16.0444 1.05256 16.5117 1.56676 16.8526 2.23722C17.1935 2.90483 17.364 3.70455 17.364 4.63636ZM16.06 4.63636C16.06 3.92614 15.945 3.32812 15.7148 2.84233C15.4876 2.35369 15.1751 1.98438 14.7773 1.73438C14.3825 1.48153 13.935 1.35511 13.435 1.35511C12.9322 1.35511 12.4833 1.48153 12.0884 1.73438C11.6935 1.98438 11.381 2.35369 11.1509 2.84233C10.9237 3.32812 10.81 3.92614 10.81 4.63636C10.81 5.34659 10.9237 5.94602 11.1509 6.43466C11.381 6.92045 11.6935 7.28977 12.0884 7.54261C12.4833 7.79261 12.9322 7.91761 13.435 7.91761C13.935 7.91761 14.3825 7.79261 14.7773 7.54261C15.1751 7.28977 15.4876 6.92045 15.7148 6.43466C15.945 5.94602 16.06 5.34659 16.06 4.63636ZM19.0057 0.272727H20.6037L23.3821 7.05682H23.4844L26.2628 0.272727H27.8608V9H26.608V2.68466H26.527L23.9531 8.98722H22.9134L20.3395 2.6804H20.2585V9H19.0057V0.272727ZM31.092 0.272727V9H29.7752V0.272727H31.092ZM40.0536 0.272727V9H38.8434L34.4073 2.59943H34.3263V9H33.0096V0.272727H34.2283L38.6687 6.68182H38.7496V0.272727H40.0536ZM47.8807 3.02983C47.7983 2.77131 47.6875 2.53977 47.5483 2.33523C47.4119 2.12784 47.2486 1.9517 47.0582 1.80682C46.8679 1.65909 46.6506 1.54687 46.4062 1.47017C46.1648 1.39347 45.8991 1.35511 45.6094 1.35511C45.1179 1.35511 44.6747 1.48153 44.2798 1.73438C43.8849 1.98722 43.5724 2.35795 43.3423 2.84659C43.1151 3.33239 43.0014 3.92756 43.0014 4.6321C43.0014 5.33949 43.1165 5.9375 43.3466 6.42614C43.5767 6.91477 43.892 7.28551 44.2926 7.53835C44.6932 7.79119 45.1491 7.91761 45.6605 7.91761C46.1349 7.91761 46.5483 7.82102 46.9006 7.62784C47.2557 7.43466 47.5298 7.16193 47.723 6.80966C47.919 6.45455 48.017 6.03693 48.017 5.55682L48.358 5.62074H45.8608V4.53409H49.2912V5.52699C49.2912 6.25994 49.1349 6.89631 48.8224 7.43608C48.5128 7.97301 48.0838 8.38778 47.5355 8.6804C46.9901 8.97301 46.3651 9.11932 45.6605 9.11932C44.8707 9.11932 44.1776 8.9375 43.581 8.57386C42.9872 8.21023 42.5241 7.6946 42.1918 7.02699C41.8594 6.35653 41.6932 5.56108 41.6932 4.64062C41.6932 3.9446 41.7898 3.3196 41.983 2.76562C42.1761 2.21165 42.4474 1.74148 42.7969 1.35511C43.1491 0.965909 43.5625 0.669034 44.0369 0.464489C44.5142 0.257102 45.0355 0.153409 45.6009 0.153409C46.0724 0.153409 46.5114 0.223011 46.9176 0.362216C47.3267 0.50142 47.6903 0.698863 48.0085 0.954545C48.3295 1.21023 48.5952 1.5142 48.8054 1.86648C49.0156 2.21591 49.1577 2.60369 49.2315 3.02983H47.8807ZM58.8984 2.56534C58.853 2.16193 58.6655 1.84943 58.3359 1.62784C58.0064 1.40341 57.5916 1.29119 57.0916 1.29119C56.7337 1.29119 56.424 1.34801 56.1626 1.46165C55.9013 1.57244 55.6982 1.72585 55.5533 1.92188C55.4112 2.11506 55.3402 2.33523 55.3402 2.58239C55.3402 2.78977 55.3885 2.96875 55.4851 3.11932C55.5845 3.26989 55.7138 3.39631 55.8729 3.49858C56.0348 3.59801 56.2081 3.68182 56.3928 3.75C56.5774 3.81534 56.755 3.86932 56.9254 3.91193L57.7777 4.13352C58.0561 4.2017 58.3416 4.29403 58.6342 4.41051C58.9268 4.52699 59.1982 4.6804 59.4482 4.87074C59.6982 5.06108 59.8999 5.29688 60.0533 5.57812C60.2095 5.85938 60.2876 6.19602 60.2876 6.58807C60.2876 7.08239 60.1598 7.52131 59.9041 7.90483C59.6513 8.28835 59.2834 8.59091 58.8004 8.8125C58.3203 9.03409 57.7393 9.14489 57.0575 9.14489C56.4041 9.14489 55.8388 9.04119 55.3615 8.83381C54.8842 8.62642 54.5107 8.33239 54.2408 7.9517C53.9709 7.56818 53.8217 7.11364 53.7933 6.58807H55.1143C55.1399 6.90341 55.2422 7.16619 55.4212 7.37642C55.603 7.58381 55.8345 7.73864 56.1158 7.84091C56.3999 7.94034 56.7109 7.99006 57.049 7.99006C57.4212 7.99006 57.7521 7.93182 58.0419 7.81534C58.3345 7.69602 58.5646 7.53125 58.7322 7.32102C58.8999 7.10795 58.9837 6.85937 58.9837 6.57528C58.9837 6.31676 58.9098 6.10511 58.7621 5.94034C58.6172 5.77557 58.4197 5.6392 58.1697 5.53125C57.9226 5.4233 57.6428 5.32812 57.3303 5.24574L56.299 4.96449C55.6001 4.77415 55.0462 4.49432 54.6371 4.125C54.2308 3.75568 54.0277 3.26705 54.0277 2.65909C54.0277 2.15625 54.1641 1.71733 54.4368 1.34233C54.7095 0.967329 55.0788 0.676136 55.5447 0.46875C56.0107 0.258523 56.5362 0.153409 57.1214 0.153409C57.7124 0.153409 58.2337 0.257102 58.6854 0.464489C59.1399 0.671875 59.4979 0.957386 59.7592 1.32102C60.0206 1.68182 60.157 2.09659 60.1683 2.56534H58.8984ZM69.4421 4.63636C69.4421 5.56818 69.2717 6.36932 68.9308 7.03977C68.5898 7.70739 68.1225 8.22159 67.5288 8.58239C66.9379 8.94034 66.266 9.11932 65.5131 9.11932C64.7575 9.11932 64.0827 8.94034 63.489 8.58239C62.8981 8.22159 62.4322 7.70597 62.0913 7.03551C61.7504 6.36506 61.5799 5.56534 61.5799 4.63636C61.5799 3.70455 61.7504 2.90483 62.0913 2.23722C62.4322 1.56676 62.8981 1.05256 63.489 0.694602C64.0827 0.333807 64.7575 0.153409 65.5131 0.153409C66.266 0.153409 66.9379 0.333807 67.5288 0.694602C68.1225 1.05256 68.5898 1.56676 68.9308 2.23722C69.2717 2.90483 69.4421 3.70455 69.4421 4.63636ZM68.1381 4.63636C68.1381 3.92614 68.0231 3.32812 67.793 2.84233C67.5657 2.35369 67.2532 1.98438 66.8555 1.73438C66.4606 1.48153 66.0131 1.35511 65.5131 1.35511C65.0103 1.35511 64.5614 1.48153 64.1665 1.73438C63.7717 1.98438 63.4592 2.35369 63.229 2.84233C63.0018 3.32812 62.8881 3.92614 62.8881 4.63636C62.8881 5.34659 63.0018 5.94602 63.229 6.43466C63.4592 6.92045 63.7717 7.28977 64.1665 7.54261C64.5614 7.79261 65.0103 7.91761 65.5131 7.91761C66.0131 7.91761 66.4606 7.79261 66.8555 7.54261C67.2532 7.28977 67.5657 6.92045 67.793 6.43466C68.0231 5.94602 68.1381 5.34659 68.1381 4.63636ZM78.6648 4.63636C78.6648 5.56818 78.4943 6.36932 78.1534 7.03977C77.8125 7.70739 77.3452 8.22159 76.7514 8.58239C76.1605 8.94034 75.4886 9.11932 74.7358 9.11932C73.9801 9.11932 73.3054 8.94034 72.7116 8.58239C72.1207 8.22159 71.6548 7.70597 71.3139 7.03551C70.973 6.36506 70.8026 5.56534 70.8026 4.63636C70.8026 3.70455 70.973 2.90483 71.3139 2.23722C71.6548 1.56676 72.1207 1.05256 72.7116 0.694602C73.3054 0.333807 73.9801 0.153409 74.7358 0.153409C75.4886 0.153409 76.1605 0.333807 76.7514 0.694602C77.3452 1.05256 77.8125 1.56676 78.1534 2.23722C78.4943 2.90483 78.6648 3.70455 78.6648 4.63636ZM77.3608 4.63636C77.3608 3.92614 77.2457 3.32812 77.0156 2.84233C76.7884 2.35369 76.4759 1.98438 76.0781 1.73438C75.6832 1.48153 75.2358 1.35511 74.7358 1.35511C74.233 1.35511 73.7841 1.48153 73.3892 1.73438C72.9943 1.98438 72.6818 2.35369 72.4517 2.84233C72.2244 3.32812 72.1108 3.92614 72.1108 4.63636C72.1108 5.34659 72.2244 5.94602 72.4517 6.43466C72.6818 6.92045 72.9943 7.28977 73.3892 7.54261C73.7841 7.79261 74.233 7.91761 74.7358 7.91761C75.2358 7.91761 75.6832 7.79261 76.0781 7.54261C76.4759 7.28977 76.7884 6.92045 77.0156 6.43466C77.2457 5.94602 77.3608 5.34659 77.3608 4.63636ZM87.3505 0.272727V9H86.1403L81.7042 2.59943H81.6232V9H80.3065V0.272727H81.5252L85.9656 6.68182H86.0465V0.272727H87.3505Z" fill="white"/>
</svg>
