<svg width="96" height="23" viewBox="0 0 96 23" fill="none" xmlns="http://www.w3.org/2000/svg">
<rect width="96" height="23" rx="4" fill="#29D9D0"/>
<path d="M10.2756 7.27273V16H8.95881V7.27273H10.2756ZM19.2372 7.27273V16H18.027L13.5909 9.59943H13.5099V16H12.1932V7.27273H13.4119L17.8523 13.6818H17.9332V7.27273H19.2372ZM24.3338 16V7.27273H27.4446C28.1236 7.27273 28.6861 7.39631 29.1321 7.64347C29.5781 7.89062 29.9119 8.22869 30.1335 8.65767C30.3551 9.08381 30.4659 9.56392 30.4659 10.098C30.4659 10.6349 30.3537 11.1179 30.1293 11.5469C29.9077 11.973 29.5724 12.3111 29.1236 12.5611C28.6776 12.8082 28.1165 12.9318 27.4403 12.9318H25.3011V11.8153H27.321C27.75 11.8153 28.098 11.7415 28.3651 11.5938C28.6321 11.4432 28.8281 11.2386 28.9531 10.9801C29.0781 10.7216 29.1406 10.4276 29.1406 10.098C29.1406 9.76847 29.0781 9.47585 28.9531 9.22017C28.8281 8.96449 28.6307 8.7642 28.3608 8.61932C28.0938 8.47443 27.7415 8.40199 27.304 8.40199H25.6506V16H24.3338ZM32.0096 16V7.27273H35.1204C35.7965 7.27273 36.3576 7.3892 36.8036 7.62216C37.2525 7.85511 37.5877 8.17756 37.8093 8.58949C38.0309 8.99858 38.1417 9.47159 38.1417 10.0085C38.1417 10.5426 38.0295 11.0128 37.805 11.419C37.5835 11.8224 37.2482 12.1364 36.7994 12.3608C36.3533 12.5852 35.7923 12.6974 35.1161 12.6974H32.7596V11.5639H34.9968C35.4229 11.5639 35.7695 11.5028 36.0366 11.3807C36.3065 11.2585 36.5039 11.081 36.6289 10.848C36.7539 10.6151 36.8164 10.3352 36.8164 10.0085C36.8164 9.67898 36.7525 9.39347 36.6246 9.15199C36.4996 8.91051 36.3022 8.72585 36.0323 8.59801C35.7653 8.46733 35.4144 8.40199 34.9798 8.40199H33.3263V16H32.0096ZM36.3178 12.0625L38.4741 16H36.9741L34.8604 12.0625H36.3178ZM47.3249 11.6364C47.3249 12.5682 47.1545 13.3693 46.8136 14.0398C46.4727 14.7074 46.0053 15.2216 45.4116 15.5824C44.8207 15.9403 44.1488 16.1193 43.396 16.1193C42.6403 16.1193 41.9656 15.9403 41.3718 15.5824C40.7809 15.2216 40.315 14.706 39.9741 14.0355C39.6332 13.3651 39.4627 12.5653 39.4627 11.6364C39.4627 10.7045 39.6332 9.90483 39.9741 9.23722C40.315 8.56676 40.7809 8.05256 41.3718 7.6946C41.9656 7.33381 42.6403 7.15341 43.396 7.15341C44.1488 7.15341 44.8207 7.33381 45.4116 7.6946C46.0053 8.05256 46.4727 8.56676 46.8136 9.23722C47.1545 9.90483 47.3249 10.7045 47.3249 11.6364ZM46.021 11.6364C46.021 10.9261 45.9059 10.3281 45.6758 9.84233C45.4485 9.35369 45.136 8.98438 44.7383 8.73438C44.3434 8.48153 43.896 8.35511 43.396 8.35511C42.8931 8.35511 42.4442 8.48153 42.0494 8.73438C41.6545 8.98438 41.342 9.35369 41.1119 9.84233C40.8846 10.3281 40.771 10.9261 40.771 11.6364C40.771 12.3466 40.8846 12.946 41.1119 13.4347C41.342 13.9205 41.6545 14.2898 42.0494 14.5426C42.4442 14.7926 42.8931 14.9176 43.396 14.9176C43.896 14.9176 44.3434 14.7926 44.7383 14.5426C45.136 14.2898 45.4485 13.9205 45.6758 13.4347C45.9059 12.946 46.021 12.3466 46.021 11.6364ZM54.8729 10.0298C54.7905 9.77131 54.6797 9.53977 54.5405 9.33523C54.4041 9.12784 54.2408 8.9517 54.0504 8.80682C53.8601 8.65909 53.6428 8.54687 53.3984 8.47017C53.157 8.39347 52.8913 8.35511 52.6016 8.35511C52.1101 8.35511 51.6669 8.48153 51.272 8.73438C50.8771 8.98722 50.5646 9.35795 50.3345 9.84659C50.1072 10.3324 49.9936 10.9276 49.9936 11.6321C49.9936 12.3395 50.1087 12.9375 50.3388 13.4261C50.5689 13.9148 50.8842 14.2855 51.2848 14.5384C51.6854 14.7912 52.1413 14.9176 52.6527 14.9176C53.1271 14.9176 53.5405 14.821 53.8928 14.6278C54.2479 14.4347 54.522 14.1619 54.7152 13.8097C54.9112 13.4545 55.0092 13.0369 55.0092 12.5568L55.3501 12.6207H52.853V11.5341H56.2834V12.527C56.2834 13.2599 56.1271 13.8963 55.8146 14.4361C55.505 14.973 55.076 15.3878 54.5277 15.6804C53.9822 15.973 53.3572 16.1193 52.6527 16.1193C51.8629 16.1193 51.1697 15.9375 50.5732 15.5739C49.9794 15.2102 49.5163 14.6946 49.1839 14.027C48.8516 13.3565 48.6854 12.5611 48.6854 11.6406C48.6854 10.9446 48.782 10.3196 48.9751 9.76562C49.1683 9.21165 49.4396 8.74148 49.7891 8.35511C50.1413 7.96591 50.5547 7.66903 51.0291 7.46449C51.5064 7.2571 52.0277 7.15341 52.593 7.15341C53.0646 7.15341 53.5036 7.22301 53.9098 7.36222C54.3189 7.50142 54.6825 7.69886 55.0007 7.95455C55.3217 8.21023 55.5874 8.5142 55.7976 8.86648C56.0078 9.21591 56.1499 9.60369 56.2237 10.0298H54.8729ZM57.9549 16V7.27273H61.0657C61.7418 7.27273 62.3029 7.3892 62.7489 7.62216C63.1978 7.85511 63.533 8.17756 63.7546 8.58949C63.9762 8.99858 64.087 9.47159 64.087 10.0085C64.087 10.5426 63.9748 11.0128 63.7504 11.419C63.5288 11.8224 63.1935 12.1364 62.7447 12.3608C62.2987 12.5852 61.7376 12.6974 61.0614 12.6974H58.7049V11.5639H60.9421C61.3683 11.5639 61.7148 11.5028 61.9819 11.3807C62.2518 11.2585 62.4492 11.081 62.5742 10.848C62.6992 10.6151 62.7617 10.3352 62.7617 10.0085C62.7617 9.67898 62.6978 9.39347 62.57 9.15199C62.445 8.91051 62.2475 8.72585 61.9776 8.59801C61.7106 8.46733 61.3597 8.40199 60.9251 8.40199H59.2717V16H57.9549ZM62.2631 12.0625L64.4194 16H62.9194L60.8058 12.0625H62.2631ZM65.6893 16V7.27273H71.1609V8.40625H67.006V11.0653H70.8754V12.1946H67.006V14.8665H71.212V16H65.6893ZM77.6797 9.56534C77.6342 9.16193 77.4467 8.84943 77.1172 8.62784C76.7876 8.40341 76.3729 8.29119 75.8729 8.29119C75.5149 8.29119 75.2053 8.34801 74.9439 8.46165C74.6825 8.57244 74.4794 8.72585 74.3345 8.92188C74.1925 9.11506 74.1214 9.33523 74.1214 9.58239C74.1214 9.78977 74.1697 9.96875 74.2663 10.1193C74.3658 10.2699 74.495 10.3963 74.6541 10.4986C74.8161 10.598 74.9893 10.6818 75.174 10.75C75.3587 10.8153 75.5362 10.8693 75.7067 10.9119L76.5589 11.1335C76.8374 11.2017 77.1229 11.294 77.4155 11.4105C77.7081 11.527 77.9794 11.6804 78.2294 11.8707C78.4794 12.0611 78.6811 12.2969 78.8345 12.5781C78.9908 12.8594 79.0689 13.196 79.0689 13.5881C79.0689 14.0824 78.9411 14.5213 78.6854 14.9048C78.4325 15.2884 78.0646 15.5909 77.5817 15.8125C77.1016 16.0341 76.5206 16.1449 75.8388 16.1449C75.1854 16.1449 74.62 16.0412 74.1428 15.8338C73.6655 15.6264 73.2919 15.3324 73.022 14.9517C72.7521 14.5682 72.603 14.1136 72.5746 13.5881H73.8956C73.9212 13.9034 74.0234 14.1662 74.2024 14.3764C74.3842 14.5838 74.6158 14.7386 74.897 14.8409C75.1811 14.9403 75.4922 14.9901 75.8303 14.9901C76.2024 14.9901 76.5334 14.9318 76.8232 14.8153C77.1158 14.696 77.3459 14.5312 77.5135 14.321C77.6811 14.108 77.7649 13.8594 77.7649 13.5753C77.7649 13.3168 77.6911 13.1051 77.5433 12.9403C77.3984 12.7756 77.201 12.6392 76.951 12.5312C76.7038 12.4233 76.424 12.3281 76.1115 12.2457L75.0803 11.9645C74.3814 11.7741 73.8274 11.4943 73.4183 11.125C73.0121 10.7557 72.8089 10.267 72.8089 9.65909C72.8089 9.15625 72.9453 8.71733 73.218 8.34233C73.4908 7.96733 73.8601 7.67614 74.326 7.46875C74.7919 7.25852 75.3175 7.15341 75.9027 7.15341C76.4936 7.15341 77.0149 7.2571 77.4666 7.46449C77.9212 7.67188 78.2791 7.95739 78.5405 8.32102C78.8018 8.68182 78.9382 9.09659 78.9496 9.56534H77.6797ZM85.4023 9.56534C85.3569 9.16193 85.1694 8.84943 84.8398 8.62784C84.5103 8.40341 84.0955 8.29119 83.5955 8.29119C83.2376 8.29119 82.9279 8.34801 82.6665 8.46165C82.4052 8.57244 82.2021 8.72585 82.0572 8.92188C81.9151 9.11506 81.8441 9.33523 81.8441 9.58239C81.8441 9.78977 81.8924 9.96875 81.989 10.1193C82.0884 10.2699 82.2177 10.3963 82.3768 10.4986C82.5387 10.598 82.712 10.6818 82.8967 10.75C83.0813 10.8153 83.2589 10.8693 83.4293 10.9119L84.2816 11.1335C84.56 11.2017 84.8455 11.294 85.1381 11.4105C85.4308 11.527 85.7021 11.6804 85.9521 11.8707C86.2021 12.0611 86.4038 12.2969 86.5572 12.5781C86.7134 12.8594 86.7915 13.196 86.7915 13.5881C86.7915 14.0824 86.6637 14.5213 86.408 14.9048C86.1552 15.2884 85.7873 15.5909 85.3043 15.8125C84.8242 16.0341 84.2433 16.1449 83.5614 16.1449C82.908 16.1449 82.3427 16.0412 81.8654 15.8338C81.3881 15.6264 81.0146 15.3324 80.7447 14.9517C80.4748 14.5682 80.3256 14.1136 80.2972 13.5881H81.6183C81.6438 13.9034 81.7461 14.1662 81.9251 14.3764C82.1069 14.5838 82.3384 14.7386 82.6197 14.8409C82.9038 14.9403 83.2148 14.9901 83.5529 14.9901C83.9251 14.9901 84.256 14.9318 84.5458 14.8153C84.8384 14.696 85.0685 14.5312 85.2362 14.321C85.4038 14.108 85.4876 13.8594 85.4876 13.5753C85.4876 13.3168 85.4137 13.1051 85.266 12.9403C85.1211 12.7756 84.9237 12.6392 84.6737 12.5312C84.4265 12.4233 84.1467 12.3281 83.8342 12.2457L82.8029 11.9645C82.104 11.7741 81.5501 11.4943 81.141 11.125C80.7347 10.7557 80.5316 10.267 80.5316 9.65909C80.5316 9.15625 80.668 8.71733 80.9407 8.34233C81.2134 7.96733 81.5827 7.67614 82.0487 7.46875C82.5146 7.25852 83.0401 7.15341 83.6254 7.15341C84.2163 7.15341 84.7376 7.2571 85.1893 7.46449C85.6438 7.67188 86.0018 7.95739 86.2631 8.32102C86.5245 8.68182 86.6609 9.09659 86.6722 9.56534H85.4023Z" fill="#06111C"/>
</svg>
