<svg width="194" height="209" viewBox="0 0 194 209" fill="none" xmlns="http://www.w3.org/2000/svg">
<g id="Group" opacity="0.5">
<path id="Vector" opacity="0.5" d="M53.8432 196.042C53.9909 196.041 54.1362 196.005 54.2662 195.936C54.4696 195.825 54.6208 195.642 54.6879 195.425C54.7551 195.207 54.733 194.973 54.6262 194.771L21.1448 134.493C21.1033 134.372 21.0348 134.26 20.9444 134.167C20.8539 134.074 20.7436 134.002 20.6212 133.955C20.4988 133.908 20.3673 133.887 20.236 133.895C20.1046 133.903 19.9767 133.939 19.861 134C19.7454 134.061 19.645 134.146 19.5668 134.249C19.4886 134.352 19.4346 134.471 19.4085 134.596C19.3825 134.722 19.385 134.851 19.416 134.976C19.4469 135.1 19.5055 135.217 19.5877 135.317L53.0602 195.586C53.1371 195.723 53.2503 195.837 53.388 195.917C53.5257 195.998 53.6828 196.04 53.8432 196.042Z" fill="white"/>
<path id="Vector_2" opacity="0.5" d="M47.8488 208.571C48.045 208.561 48.2326 208.488 48.3826 208.365C48.5327 208.241 48.6372 208.073 48.68 207.887C48.7228 207.7 48.7018 207.505 48.6199 207.331C48.5381 207.157 48.4 207.014 48.2268 206.924L24.2588 196.042C24.1508 195.97 24.0282 195.922 23.8993 195.902C23.7704 195.881 23.6384 195.887 23.5124 195.921C23.3865 195.955 23.2696 196.015 23.1699 196.097C23.0702 196.18 22.9902 196.282 22.9352 196.397C22.8802 196.513 22.8517 196.638 22.8517 196.765C22.8516 196.893 22.88 197.018 22.9349 197.134C22.9897 197.249 23.0698 197.352 23.1694 197.434C23.269 197.516 23.3858 197.576 23.5118 197.61L47.4798 208.492C47.5957 208.543 47.7214 208.57 47.8488 208.571Z" fill="white"/>
<path id="Vector_3" opacity="0.5" d="M1.02898 157.326C1.25716 157.326 1.47704 157.243 1.64413 157.091C1.81122 156.94 1.91305 156.733 1.92902 156.511L3.01806 138.91C3.01879 138.689 2.93391 138.476 2.78039 138.314C2.62687 138.151 2.41605 138.051 2.19004 138.033C1.95565 138.021 1.72567 138.099 1.54913 138.249C1.37258 138.4 1.26343 138.612 1.24498 138.839L0.155944 156.441C0.143482 156.669 0.223083 156.893 0.377768 157.065C0.532453 157.237 0.749995 157.343 0.983992 157.361L1.02898 157.326Z" fill="white"/>
<path id="Vector_4" opacity="0.5" d="M10.1552 90.3717H10.3082C10.5399 90.329 10.7451 90.1995 10.8797 90.0111C11.0144 89.8227 11.0677 89.5904 11.0282 89.3641L6.78006 66.1203C6.70763 65.926 6.56694 65.7628 6.38286 65.6597C6.19879 65.5566 5.98319 65.5202 5.77419 65.5569C5.5652 65.5936 5.37624 65.7011 5.24079 65.8603C5.10533 66.0195 5.03209 66.2202 5.03399 66.4269L9.28217 89.7058C9.33041 89.8958 9.44256 90.0645 9.60079 90.1852C9.75901 90.3059 9.9542 90.3715 10.1552 90.3717Z" fill="white"/>
<path id="Vector_5" opacity="0.5" d="M34.8793 21.5594H34.9243L75.8581 19.8071C76.0873 19.7937 76.3026 19.6955 76.4599 19.5326C76.6171 19.3698 76.7045 19.1545 76.7041 18.931C76.6903 18.7079 76.5895 18.4983 76.4222 18.3452C76.2548 18.1921 76.0337 18.107 75.8041 18.1074L34.8703 19.8597C34.6316 19.8597 34.4027 19.952 34.2339 20.1163C34.0651 20.2806 33.9703 20.5035 33.9703 20.7358C33.9703 20.9682 34.0651 21.191 34.2339 21.3553C34.4027 21.5197 34.6316 21.612 34.8703 21.612L34.8793 21.5594Z" fill="white"/>
<path id="Vector_6" opacity="0.5" d="M119.753 12.0276C119.825 12.0361 119.897 12.0361 119.969 12.0276L159.913 2.56539C160.111 2.48528 160.274 2.33862 160.371 2.15196C160.468 1.96529 160.494 1.75095 160.442 1.5477C160.391 1.34445 160.267 1.16571 160.092 1.04384C159.918 0.921957 159.704 0.864984 159.49 0.883217L119.546 10.3455C119.307 10.3722 119.089 10.4901 118.94 10.6733C118.791 10.8565 118.722 11.09 118.75 11.3223C118.777 11.5547 118.898 11.7669 119.086 11.9124C119.275 12.0578 119.514 12.1244 119.753 12.0977V12.0276Z" fill="white"/>
<path id="Vector_7" opacity="0.5" d="M192.89 77.238H193.007C193.242 77.2054 193.453 77.0841 193.597 76.9004C193.74 76.7167 193.803 76.4854 193.772 76.2568L188.849 41.886C188.832 41.771 188.793 41.6602 188.732 41.5601C188.672 41.46 188.591 41.3724 188.496 41.3024C188.401 41.2325 188.292 41.1815 188.177 41.1523C188.061 41.1232 187.941 41.1165 187.823 41.1326C187.705 41.1487 187.591 41.1873 187.488 41.2462C187.385 41.3051 187.295 41.3832 187.223 41.4759C187.151 41.5687 187.099 41.6743 187.069 41.7867C187.039 41.8992 187.032 42.0163 187.049 42.1314L191.963 76.5021C191.998 76.714 192.112 76.906 192.283 77.0417C192.454 77.1773 192.67 77.2472 192.89 77.238Z" fill="white"/>
<path id="Vector_8" opacity="0.5" d="M166.159 159.139C166.318 159.138 166.475 159.097 166.613 159.018C166.75 158.94 166.864 158.827 166.942 158.692L183.26 129.403C183.333 129.205 183.331 128.989 183.254 128.793C183.177 128.597 183.03 128.434 182.841 128.335C182.651 128.235 182.431 128.205 182.221 128.25C182.01 128.295 181.823 128.411 181.694 128.579L165.34 157.859C165.269 157.992 165.235 158.139 165.239 158.288C165.244 158.437 165.287 158.583 165.366 158.711C165.444 158.839 165.555 158.946 165.687 159.02C165.82 159.095 165.97 159.136 166.123 159.139H166.159Z" fill="white"/>
<path id="Vector_9" opacity="0.5" d="M98.3769 205.75C98.4778 205.752 98.5782 205.737 98.6739 205.707L127.079 195.99C127.266 195.89 127.41 195.728 127.486 195.534C127.562 195.34 127.564 195.126 127.493 194.93C127.422 194.734 127.281 194.569 127.097 194.465C126.912 194.361 126.695 194.324 126.485 194.361L98.0799 204.077C97.8972 204.156 97.7469 204.293 97.6528 204.465C97.5587 204.637 97.5261 204.834 97.5601 205.026C97.5942 205.218 97.693 205.393 97.8409 205.525C97.9888 205.656 98.1775 205.735 98.3769 205.75Z" fill="white"/>
<path id="Vector_10" opacity="0.5" d="M91.7891 191.627C92.0252 191.626 92.2515 191.535 92.4191 191.373L169.669 116.533C169.834 116.37 169.927 116.149 169.927 115.92C169.927 115.691 169.834 115.471 169.669 115.307C169.502 115.149 169.277 115.061 169.044 115.061C168.811 115.061 168.586 115.149 168.418 115.307L91.1681 190.146C91.0481 190.268 90.9671 190.422 90.9348 190.588C90.9024 190.754 90.9201 190.926 90.9858 191.082C91.0514 191.239 91.1622 191.373 91.3048 191.47C91.4473 191.567 91.6155 191.621 91.7891 191.627Z" fill="white"/>
<path id="Vector_11" opacity="0.5" d="M178.949 88.83C179.084 88.8284 179.218 88.7968 179.34 88.7376C179.461 88.6784 179.568 88.5932 179.651 88.4883C179.79 88.3058 179.851 88.0775 179.821 87.8519C179.791 87.6262 179.672 87.4209 179.489 87.2793L114.227 38.5487C114.137 38.4573 114.028 38.386 113.907 38.3395C113.786 38.2931 113.656 38.2727 113.527 38.2797C113.397 38.2867 113.27 38.3209 113.155 38.3801C113.041 38.4393 112.94 38.5219 112.861 38.6224C112.782 38.7229 112.727 38.8388 112.698 38.9622C112.67 39.0856 112.669 39.2136 112.696 39.3373C112.723 39.4609 112.778 39.5775 112.855 39.6788C112.933 39.7801 113.033 39.8639 113.147 39.9242L178.408 88.646C178.563 88.7629 178.753 88.8275 178.949 88.83Z" fill="white"/>
<path id="Vector_12" opacity="0.5" d="M26.3021 90.3713C26.4351 90.3704 26.5662 90.3409 26.686 90.2849C26.8058 90.2288 26.9114 90.1476 26.9952 90.0471L76.0293 29.7253C76.1375 29.5433 76.1749 29.3295 76.1347 29.1229C76.0944 28.9163 75.9791 28.7307 75.8099 28.6C75.6407 28.4693 75.4288 28.4022 75.213 28.4109C74.9971 28.4197 74.7917 28.5037 74.6343 28.6477L25.6091 88.9695C25.4647 89.1505 25.399 89.3793 25.4259 89.607C25.4528 89.8346 25.5703 90.043 25.7531 90.1873C25.9102 90.306 26.1033 90.3707 26.3021 90.3713Z" fill="white"/>
</g>
</svg>
