<svg width="1440" height="2434" viewBox="0 0 1440 2434" fill="none" xmlns="http://www.w3.org/2000/svg">
<g opacity="0.8">
<path d="M255.021 475.151C255.384 475.151 255.678 474.062 255.678 472.718C255.678 471.374 255.384 470.284 255.021 470.284C254.658 470.284 254.364 471.374 254.364 472.718C254.364 474.062 254.658 475.151 255.021 475.151Z" fill="white"/>
<path d="M0.656789 634.818C1.01952 634.818 1.31358 633.729 1.31358 632.385C1.31358 631.041 1.01952 629.951 0.656789 629.951C0.294054 629.951 0 631.041 0 632.385C0 633.729 0.294054 634.818 0.656789 634.818Z" fill="white"/>
<path d="M309.342 419.519C309.704 419.519 309.998 418.429 309.998 417.085C309.998 415.741 309.704 414.652 309.342 414.652C308.979 414.652 308.685 415.741 308.685 417.085C308.685 418.429 308.979 419.519 309.342 419.519Z" fill="white"/>
<path d="M339.302 291.685C339.665 291.685 339.959 290.595 339.959 289.251C339.959 287.907 339.665 286.817 339.302 286.817C338.939 286.817 338.645 287.907 338.645 289.251C338.645 290.595 338.939 291.685 339.302 291.685Z" fill="white"/>
<path d="M361.092 527.169C361.454 527.169 361.749 526.079 361.749 524.735C361.749 523.391 361.454 522.301 361.092 522.301C360.729 522.301 360.435 523.391 360.435 524.735C360.435 526.079 360.729 527.169 361.092 527.169Z" fill="white"/>
<path d="M404.671 668.459C405.033 668.459 405.328 667.369 405.328 666.025C405.328 664.681 405.033 663.592 404.671 663.592C404.308 663.592 404.014 664.681 404.014 666.025C404.014 667.369 404.308 668.459 404.671 668.459Z" fill="white"/>
<path d="M360.184 742.468C360.547 742.468 360.841 741.379 360.841 740.035C360.841 738.691 360.547 737.601 360.184 737.601C359.821 737.601 359.527 738.691 359.527 740.035C359.527 741.379 359.821 742.468 360.184 742.468Z" fill="white"/>
<path d="M263.039 1553.21C263.402 1553.21 263.696 1552.12 263.696 1550.77C263.696 1549.43 263.402 1548.34 263.039 1548.34C262.676 1548.34 262.382 1549.43 262.382 1550.77C262.382 1552.12 262.676 1553.21 263.039 1553.21Z" fill="white"/>
<path d="M238.526 944.312C238.888 944.312 239.182 943.222 239.182 941.878C239.182 940.534 238.888 939.444 238.526 939.444C238.163 939.444 237.869 940.534 237.869 941.878C237.869 943.222 238.163 944.312 238.526 944.312Z" fill="white"/>
<path d="M310.25 1062.05C310.612 1062.05 310.906 1060.96 310.906 1059.62C310.906 1058.28 310.612 1057.19 310.25 1057.19C309.887 1057.19 309.593 1058.28 309.593 1059.62C309.593 1060.96 309.887 1062.05 310.25 1062.05Z" fill="white"/>
<path d="M556.289 819.841C556.652 819.841 556.946 818.752 556.946 817.408C556.946 816.064 556.652 814.974 556.289 814.974C555.927 814.974 555.633 816.064 555.633 817.408C555.633 818.752 555.927 819.841 556.289 819.841Z" fill="white"/>
<path d="M802.329 577.629C802.692 577.629 802.986 576.54 802.986 575.196C802.986 573.852 802.692 572.762 802.329 572.762C801.967 572.762 801.673 573.852 801.673 575.196C801.673 576.54 801.967 577.629 802.329 577.629Z" fill="white"/>
<path d="M1323.13 855.435C1322.92 856.519 1322.98 858.042 1323.27 858.836C1323.56 859.631 1323.97 859.397 1324.19 858.313C1324.4 857.229 1324.34 855.707 1324.05 854.912C1323.76 854.117 1323.34 854.351 1323.13 855.435Z" fill="white"/>
<path d="M1438.81 0.994535C1438.6 2.07835 1438.66 3.60132 1438.95 4.3962C1439.25 5.19108 1439.66 4.95685 1439.87 3.87304C1440.09 2.78923 1440.02 1.26625 1439.73 0.471372C1439.44 -0.323505 1439.03 -0.0892794 1438.81 0.994535Z" fill="white"/>
<path d="M1303.11 1050.64C1302.9 1051.72 1302.96 1053.25 1303.25 1054.04C1303.55 1054.84 1303.96 1054.6 1304.17 1053.52C1304.39 1052.43 1304.32 1050.91 1304.03 1050.12C1303.74 1049.32 1303.33 1049.56 1303.11 1050.64Z" fill="white"/>
<path d="M1313.21 1215.76C1313 1216.84 1313.06 1218.37 1313.35 1219.16C1313.65 1219.96 1314.06 1219.72 1314.27 1218.64C1314.49 1217.55 1314.42 1216.03 1314.13 1215.24C1313.84 1214.44 1313.43 1214.68 1313.21 1215.76Z" fill="white"/>
<path d="M1249.08 1141.6C1248.86 1142.68 1248.93 1144.21 1249.22 1145C1249.51 1145.8 1249.92 1145.56 1250.14 1144.48C1250.35 1143.39 1250.29 1141.87 1250 1141.08C1249.7 1140.28 1249.29 1140.52 1249.08 1141.6Z" fill="white"/>
<path d="M1192.56 1188.25C1192.34 1189.33 1192.41 1190.86 1192.7 1191.65C1192.99 1192.45 1193.4 1192.21 1193.62 1191.13C1193.83 1190.04 1193.77 1188.52 1193.48 1187.73C1193.18 1186.93 1192.77 1187.17 1192.56 1188.25Z" fill="white"/>
<path d="M1202.76 1011.56C1202.55 1012.64 1202.61 1014.16 1202.9 1014.96C1203.19 1015.75 1203.61 1015.52 1203.82 1014.44C1204.03 1013.35 1203.97 1011.83 1203.68 1011.03C1203.39 1010.24 1202.98 1010.47 1202.76 1011.56Z" fill="white"/>
<path d="M1083.78 241.827C1083.56 242.911 1083.62 244.434 1083.92 245.229C1084.21 246.024 1084.62 245.79 1084.83 244.706C1085.05 243.622 1084.99 242.099 1084.69 241.304C1084.4 240.509 1083.99 240.743 1083.78 241.827Z" fill="white"/>
<path d="M1230.78 528.686C1230.57 529.77 1230.63 531.293 1230.92 532.088C1231.22 532.882 1231.63 532.648 1231.84 531.564C1232.06 530.481 1231.99 528.958 1231.7 528.163C1231.41 527.368 1231 527.602 1230.78 528.686Z" fill="white"/>
<path d="M1162.74 673.356C1162.53 674.44 1162.59 675.963 1162.88 676.758C1163.18 677.553 1163.59 677.318 1163.8 676.234C1164.02 675.151 1163.95 673.628 1163.66 672.833C1163.37 672.038 1162.96 672.272 1162.74 673.356Z" fill="white"/>
<path d="M1069.95 1551.74C1069.73 1552.83 1069.79 1554.35 1070.09 1555.14C1070.38 1555.94 1070.79 1555.7 1071 1554.62C1071.22 1553.54 1071.16 1552.01 1070.86 1551.22C1070.57 1550.42 1070.16 1550.66 1069.95 1551.74Z" fill="white"/>
<path d="M977.148 2430.13C976.934 2431.21 976.997 2432.73 977.289 2433.53C977.582 2434.32 977.993 2434.09 978.207 2433.01C978.422 2431.92 978.359 2430.4 978.066 2429.6C977.774 2428.81 977.363 2429.04 977.148 2430.13Z" fill="white"/>
<path d="M700.492 1368.24C700.129 1368.24 699.835 1369.33 699.835 1370.67C699.835 1372.01 700.129 1373.1 700.492 1373.1C700.854 1373.1 701.148 1372.01 701.148 1370.67C701.148 1369.33 700.854 1368.24 700.492 1368.24Z" fill="white"/>
<path d="M764.198 996.634C763.835 996.634 763.541 997.723 763.541 999.067C763.541 1000.41 763.835 1001.5 764.198 1001.5C764.56 1001.5 764.854 1000.41 764.854 999.067C764.854 997.723 764.56 996.634 764.198 996.634Z" fill="white"/>
<path d="M646.171 1423.87C645.808 1423.87 645.514 1424.96 645.514 1426.3C645.514 1427.65 645.808 1428.74 646.171 1428.74C646.534 1428.74 646.828 1427.65 646.828 1426.3C646.828 1424.96 646.534 1423.87 646.171 1423.87Z" fill="white"/>
<path d="M432.816 2103.41C432.453 2103.41 432.159 2104.5 432.159 2105.84C432.159 2107.19 432.453 2108.27 432.816 2108.27C433.178 2108.27 433.472 2107.19 433.472 2105.84C433.472 2104.5 433.178 2103.41 432.816 2103.41Z" fill="white"/>
<path d="M616.21 1551.7C615.848 1551.7 615.554 1552.79 615.554 1554.14C615.554 1555.48 615.848 1556.57 616.21 1556.57C616.573 1556.57 616.867 1555.48 616.867 1554.14C616.867 1552.79 616.573 1551.7 616.21 1551.7Z" fill="white"/>
<path d="M466.408 1460.87C466.045 1460.87 465.751 1461.96 465.751 1463.31C465.751 1464.65 466.045 1465.74 466.408 1465.74C466.77 1465.74 467.064 1464.65 467.064 1463.31C467.064 1461.96 466.77 1460.87 466.408 1460.87Z" fill="white"/>
<path d="M550.842 1174.93C550.479 1174.93 550.185 1176.02 550.185 1177.36C550.185 1178.71 550.479 1179.8 550.842 1179.8C551.205 1179.8 551.499 1178.71 551.499 1177.36C551.499 1176.02 551.205 1174.93 550.842 1174.93Z" fill="white"/>
<path d="M337.486 1854.47C337.124 1854.47 336.83 1855.56 336.83 1856.9C336.83 1858.25 337.124 1859.33 337.486 1859.33C337.849 1859.33 338.143 1858.25 338.143 1856.9C338.143 1855.56 337.849 1854.47 337.486 1854.47Z" fill="white"/>
<path d="M578.987 259.905C578.624 259.905 578.33 260.995 578.33 262.339C578.33 263.683 578.624 264.772 578.987 264.772C579.35 264.772 579.644 263.683 579.644 262.339C579.644 260.995 579.35 259.905 578.987 259.905Z" fill="white"/>
<path d="M686.119 337.278C685.756 337.278 685.462 338.368 685.462 339.712C685.462 341.056 685.756 342.146 686.119 342.146C686.481 342.146 686.775 341.056 686.775 339.712C686.775 338.368 686.481 337.278 686.119 337.278Z" fill="white"/>
<path d="M647.079 1060.55C646.716 1060.55 646.422 1061.64 646.422 1062.98C646.422 1064.33 646.716 1065.42 647.079 1065.42C647.442 1065.42 647.736 1064.33 647.736 1062.98C647.736 1061.64 647.442 1060.55 647.079 1060.55Z" fill="white"/>
<path d="M716.987 899.076C716.624 899.076 716.33 900.165 716.33 901.509C716.33 902.853 716.624 903.943 716.987 903.943C717.35 903.943 717.644 902.853 717.644 901.509C717.644 900.165 717.35 899.076 716.987 899.076Z" fill="white"/>
<path d="M645.263 781.334C644.9 781.334 644.606 782.423 644.606 783.767C644.606 785.111 644.9 786.201 645.263 786.201C645.626 786.201 645.92 785.111 645.92 783.767C645.92 782.423 645.626 781.334 645.263 781.334Z" fill="white"/>
<path d="M431.908 1460.87C431.545 1460.87 431.251 1461.96 431.251 1463.31C431.251 1464.65 431.545 1465.74 431.908 1465.74C432.27 1465.74 432.564 1464.65 432.564 1463.31C432.564 1461.96 432.27 1460.87 431.908 1460.87Z" fill="white"/>
<path d="M399.223 1023.55C398.86 1023.55 398.566 1024.64 398.566 1025.98C398.566 1027.32 398.86 1028.41 399.223 1028.41C399.586 1028.41 399.88 1027.32 399.88 1025.98C399.88 1024.64 399.586 1023.55 399.223 1023.55Z" fill="white"/>
<path d="M153.183 1265.76C152.82 1265.76 152.526 1266.85 152.526 1268.19C152.526 1269.54 152.82 1270.62 153.183 1270.62C153.546 1270.62 153.84 1269.54 153.84 1268.19C153.84 1266.85 153.546 1265.76 153.183 1265.76Z" fill="white"/>
<path d="M865.319 1658.28C865.533 1657.2 865.47 1655.67 865.178 1654.88C864.885 1654.08 864.474 1654.32 864.26 1655.4C864.045 1656.48 864.108 1658.01 864.401 1658.8C864.693 1659.6 865.104 1659.36 865.319 1658.28Z" fill="white"/>
<path d="M908.513 2068.39C908.728 2067.31 908.665 2065.79 908.372 2064.99C908.08 2064.2 907.669 2064.43 907.454 2065.51C907.239 2066.6 907.303 2068.12 907.595 2068.92C907.888 2069.71 908.299 2069.48 908.513 2068.39Z" fill="white"/>
<path d="M885.337 1463.07C885.552 1461.99 885.488 1460.47 885.196 1459.67C884.903 1458.88 884.492 1459.11 884.278 1460.2C884.063 1461.28 884.127 1462.8 884.419 1463.6C884.712 1464.39 885.123 1464.16 885.337 1463.07Z" fill="white"/>
<path d="M875.236 1297.95C875.45 1296.87 875.387 1295.35 875.095 1294.55C874.802 1293.76 874.391 1293.99 874.177 1295.08C873.962 1296.16 874.025 1297.68 874.318 1298.48C874.61 1299.27 875.021 1299.04 875.236 1297.95Z" fill="white"/>
<path d="M983.596 904.076C983.811 902.992 983.748 901.469 983.455 900.674C983.163 899.88 982.752 900.114 982.537 901.198C982.323 902.281 982.386 903.804 982.678 904.599C982.971 905.394 983.382 905.16 983.596 904.076Z" fill="white"/>
<path d="M995.891 1325.47C996.105 1324.38 996.042 1322.86 995.75 1322.06C995.457 1321.27 995.046 1321.5 994.832 1322.59C994.617 1323.67 994.68 1325.19 994.973 1325.99C995.265 1326.78 995.676 1326.55 995.891 1325.47Z" fill="white"/>
<path d="M1178.38 1950.71C1178.59 1949.62 1178.53 1948.1 1178.24 1947.3C1177.95 1946.51 1177.53 1946.74 1177.32 1947.83C1177.1 1948.91 1177.17 1950.43 1177.46 1951.23C1177.75 1952.02 1178.16 1951.79 1178.38 1950.71Z" fill="white"/>
<path d="M963.868 1680.65C964.082 1679.57 964.019 1678.05 963.727 1677.25C963.434 1676.46 963.023 1676.69 962.808 1677.78C962.594 1678.86 962.657 1680.38 962.95 1681.18C963.242 1681.97 963.653 1681.74 963.868 1680.65Z" fill="white"/>
<path d="M957.665 1985.03C957.88 1983.94 957.816 1982.42 957.524 1981.63C957.231 1980.83 956.82 1981.07 956.606 1982.15C956.391 1983.23 956.454 1984.76 956.747 1985.55C957.039 1986.35 957.451 1986.11 957.665 1985.03Z" fill="white"/>
<path d="M1025.71 1840.36C1025.92 1839.27 1025.86 1837.75 1025.57 1836.96C1025.27 1836.16 1024.86 1836.4 1024.65 1837.48C1024.43 1838.56 1024.5 1840.09 1024.79 1840.88C1025.08 1841.68 1025.49 1841.44 1025.71 1840.36Z" fill="white"/>
<path d="M1118.5 961.973C1118.72 960.889 1118.65 959.366 1118.36 958.571C1118.07 957.777 1117.66 958.011 1117.44 959.095C1117.23 960.178 1117.29 961.701 1117.59 962.496C1117.88 963.291 1118.29 963.057 1118.5 961.973Z" fill="white"/>
<path d="M1211.3 83.5877C1211.51 82.5039 1211.45 80.9809 1211.16 80.186C1210.87 79.3911 1210.46 79.6254 1210.24 80.7092C1210.03 81.793 1210.09 83.316 1210.38 84.1108C1210.67 84.9057 1211.09 84.6715 1211.3 83.5877Z" fill="white"/>
</g>
</svg>
