<svg width="467" height="49" viewBox="0 0 467 49" fill="none" xmlns="http://www.w3.org/2000/svg">
<circle cx="6" cy="34.0049" r="6" fill="#867EE8"/>
<path d="M26.1641 35.5674H28.7422C31.1562 35.5674 32.7422 34.1221 32.7422 31.9736C32.7422 29.8174 31.1406 28.3643 28.7422 28.3643H24.7031V40.0049H26.1641V35.5674ZM28.7422 29.6689C30.2344 29.6689 31.2266 30.5908 31.2266 31.958C31.2266 33.3408 30.2344 34.2549 28.7422 34.2549H26.1641V29.6689H28.7422ZM37.7809 40.1689C38.57 40.1689 39.3122 39.9111 39.7731 39.5283V40.0049H41.0778V31.7783H39.7731V36.7705C39.7731 38.0439 38.9841 38.8799 37.7653 38.8799C36.5466 38.8799 35.7731 38.0439 35.7731 36.7705V31.7783H34.4762V37.1611C34.4762 38.8799 35.7887 40.1689 37.7809 40.1689ZM46.7884 40.208C49.1634 40.208 50.8822 38.3799 50.8822 35.8877C50.8822 33.3877 49.1634 31.5596 46.7884 31.5596C45.7494 31.5596 44.8431 31.8877 44.1087 32.5361V28.458H42.8119V40.0049H44.1087V39.2314C44.8431 39.8799 45.7494 40.208 46.7884 40.208ZM46.7884 38.8877C45.2103 38.8877 44.1009 37.6455 44.1009 35.8877C44.1009 34.1221 45.2103 32.8799 46.7884 32.8799C48.3666 32.8799 49.4681 34.1221 49.4681 35.8877C49.4681 37.6455 48.3666 38.8877 46.7884 38.8877ZM53.9131 28.458H52.6162V40.0049H53.9131V28.458ZM56.9363 28.458H55.6394V30.3486H56.9363V28.458ZM56.9363 31.7783H55.6394V40.0049H56.9363V31.7783ZM62.7562 40.208C64.2953 40.208 65.5609 39.4346 66.2797 38.1924L65.0922 37.4658C64.6 38.3486 63.7719 38.8877 62.7562 38.8877C61.1781 38.8877 60.0766 37.6455 60.0766 35.8877C60.0766 34.1221 61.1781 32.8799 62.7562 32.8799C63.7719 32.8799 64.6 33.4189 65.0922 34.3018L66.2797 33.5752C65.5609 32.333 64.2953 31.5596 62.7562 31.5596C60.3812 31.5596 58.6625 33.3877 58.6625 35.8877C58.6625 38.3799 60.3812 40.208 62.7562 40.208Z" fill="white"/>
<circle cx="98" cy="34.0049" r="6" fill="#29D9D0"/>
<path d="M121.312 29.6689H124.453V28.3643H116.703V29.6689H119.859V40.0049H121.312V29.6689ZM127.929 40.208C129.468 40.208 130.734 39.4346 131.453 38.1924L130.265 37.4658C129.773 38.3486 128.945 38.8877 127.929 38.8877C126.508 38.8877 125.468 37.833 125.273 36.3486H132.023V36.0596L132.031 35.8877C132.031 33.3877 130.304 31.5596 127.929 31.5596C125.554 31.5596 123.836 33.3877 123.836 35.8877C123.836 38.3799 125.554 40.208 127.929 40.208ZM125.32 35.1221C125.593 33.7783 126.601 32.8799 127.929 32.8799C129.265 32.8799 130.273 33.7783 130.539 35.1221H125.32ZM136.71 40.1846C137.671 40.1846 138.601 39.7393 139.171 39.0283V40.0049H140.468V34.4346C140.468 32.6689 139.109 31.5986 137.202 31.5986C135.179 31.6455 134.046 32.6064 134.046 34.2549L135.421 34.2393C135.421 33.3408 136.046 32.9189 137.21 32.8955C138.32 32.9111 139.171 33.4424 139.171 34.4346V34.5518L136.421 35.1846C134.757 35.5674 133.765 36.4268 133.765 37.6533C133.765 39.1533 134.952 40.1846 136.71 40.1846ZM136.71 38.9033C135.749 38.9033 135.14 38.4189 135.14 37.6689C135.14 37.0127 135.788 36.4971 136.749 36.2783L139.171 35.7236V36.3486C139.171 37.8174 138.14 38.9033 136.71 38.9033ZM143.491 35.0127C143.491 33.7627 144.28 32.9424 145.452 32.8955C146.577 32.9346 147.327 33.7471 147.327 34.9971V40.0049H148.624V34.9971C148.624 33.7314 149.382 32.8955 150.546 32.8955C151.718 32.8955 152.46 33.7158 152.46 34.9971V40.0049H153.757V34.6064C153.757 32.8799 152.476 31.5986 150.757 31.5986C149.655 31.5986 148.562 32.0049 147.983 32.8799C147.491 32.0752 146.718 31.6064 145.437 31.6064H145.405C144.64 31.6299 143.937 31.8721 143.491 32.2549V31.7783H142.194V40.0049H143.491V35.0127Z" fill="white"/>
<g filter="url(#filter0_d_1_2257)">
<circle cx="185" cy="34.0049" r="6" fill="#00D98D"/>
<path d="M205.164 40.0049H203.703V28.3643H207.742C208.534 28.3643 209.232 28.5153 209.836 28.8174C210.44 29.1195 210.909 29.5439 211.242 30.0908C211.576 30.6325 211.742 31.2601 211.742 31.9736C211.742 32.7653 211.539 33.4502 211.133 34.0283C210.732 34.6064 210.169 35.0257 209.445 35.2861L212.156 40.0049H210.445L207.914 35.5674H205.164V40.0049ZM205.164 29.6689V34.2549H207.742C208.237 34.2549 208.672 34.1611 209.047 33.9736C209.422 33.7809 209.711 33.5127 209.914 33.1689C210.122 32.82 210.227 32.4163 210.227 31.958C210.227 31.5049 210.122 31.1064 209.914 30.7627C209.711 30.4137 209.419 30.1455 209.039 29.958C208.664 29.7653 208.232 29.6689 207.742 29.6689H205.164ZM216.804 40.208C216.023 40.208 215.32 40.0231 214.695 39.6533C214.075 39.2783 213.588 38.7627 213.234 38.1064C212.885 37.4502 212.711 36.7106 212.711 35.8877C212.711 35.0648 212.885 34.3252 213.234 33.6689C213.588 33.0075 214.075 32.4919 214.695 32.1221C215.32 31.7471 216.023 31.5596 216.804 31.5596C217.586 31.5596 218.286 31.7471 218.906 32.1221C219.531 32.4919 220.021 33.0075 220.375 33.6689C220.729 34.3252 220.906 35.0648 220.906 35.8877L220.898 36.0596V36.3486H214.148C214.211 36.8434 214.362 37.2835 214.601 37.6689C214.846 38.0492 215.159 38.3486 215.539 38.5674C215.919 38.7809 216.341 38.8877 216.804 38.8877C217.304 38.8877 217.755 38.7627 218.156 38.5127C218.562 38.2627 218.89 37.9137 219.14 37.4658L220.328 38.1924C219.963 38.8226 219.474 39.3174 218.859 39.6768C218.25 40.0309 217.565 40.208 216.804 40.208ZM219.414 35.1221C219.325 34.6742 219.159 34.2809 218.914 33.9424C218.674 33.6038 218.372 33.3434 218.007 33.1611C217.643 32.9736 217.242 32.8799 216.804 32.8799C216.367 32.8799 215.966 32.9736 215.601 33.1611C215.242 33.3434 214.94 33.6038 214.695 33.9424C214.45 34.2809 214.284 34.6742 214.195 35.1221H219.414ZM226.343 40.208C225.562 40.208 224.859 40.0231 224.234 39.6533C223.614 39.2783 223.127 38.7627 222.773 38.1064C222.424 37.4502 222.249 36.7106 222.249 35.8877C222.249 35.0648 222.424 34.3252 222.773 33.6689C223.127 33.0075 223.614 32.4919 224.234 32.1221C224.859 31.7471 225.562 31.5596 226.343 31.5596C227.39 31.5596 228.283 31.8851 229.023 32.5361V28.458H230.32V40.0049H229.023V39.2314C228.283 39.8825 227.39 40.208 226.343 40.208ZM226.343 38.8877C226.864 38.8877 227.327 38.7601 227.734 38.5049C228.14 38.2497 228.458 37.8955 228.687 37.4424C228.916 36.984 229.031 36.4658 229.031 35.8877C229.031 35.3044 228.916 34.7861 228.687 34.333C228.458 33.8747 228.14 33.5179 227.734 33.2627C227.327 33.0075 226.864 32.8799 226.343 32.8799C225.822 32.8799 225.359 33.0075 224.952 33.2627C224.546 33.5179 224.229 33.8747 223.999 34.333C223.775 34.7861 223.663 35.3044 223.663 35.8877C223.663 36.4658 223.775 36.984 223.999 37.4424C224.229 37.8955 224.546 38.2497 224.952 38.5049C225.359 38.7601 225.822 38.8877 226.343 38.8877ZM233.351 28.458V30.3486H232.054V28.458H233.351ZM233.351 31.7783V40.0049H232.054V31.7783H233.351ZM238.116 40.1846C237.329 40.1846 236.629 39.9788 236.014 39.5674C235.405 39.1507 234.962 38.5804 234.686 37.8564L235.85 37.2627C236.059 37.7887 236.363 38.1924 236.764 38.4736C237.165 38.7497 237.616 38.8877 238.116 38.8877C238.423 38.8877 238.694 38.8408 238.928 38.7471C239.168 38.6481 239.353 38.5127 239.483 38.3408C239.619 38.1637 239.686 37.9658 239.686 37.7471C239.686 37.4919 239.585 37.2783 239.382 37.1064C239.178 36.9346 238.871 36.7913 238.46 36.6768L237.186 36.3096C236.499 36.1117 235.978 35.8174 235.624 35.4268C235.27 35.0361 235.093 34.5596 235.093 33.9971C235.093 33.5231 235.207 33.1064 235.436 32.7471C235.671 32.3825 235.999 32.1012 236.421 31.9033C236.848 31.7002 237.337 31.5986 237.889 31.5986C238.629 31.5986 239.283 31.7939 239.85 32.1846C240.418 32.57 240.824 33.1012 241.069 33.7783L239.905 34.3408C239.728 33.8773 239.462 33.5179 239.108 33.2627C238.759 33.0075 238.353 32.8799 237.889 32.8799C237.462 32.8799 237.119 32.9762 236.858 33.1689C236.598 33.3617 236.468 33.6117 236.468 33.9189C236.468 34.4242 236.845 34.7913 237.6 35.0205L238.936 35.4346C239.629 35.6481 240.155 35.9528 240.514 36.3486C240.874 36.7445 241.053 37.221 241.053 37.7783C241.053 38.2471 240.928 38.6637 240.678 39.0283C240.434 39.3929 240.087 39.6768 239.639 39.8799C239.197 40.083 238.689 40.1846 238.116 40.1846ZM246.506 40.0986C245.704 40.0986 245.087 39.8799 244.655 39.4424C244.222 39.0049 244.006 38.3799 244.006 37.5674V33.083H242.412V31.7783H244.006V29.1377H245.303V31.7783H247.248V33.083H245.303V37.5674C245.303 37.7861 245.327 37.9919 245.373 38.1846C245.42 38.3721 245.545 38.5465 245.748 38.708C245.952 38.8695 246.261 38.9502 246.678 38.9502C246.84 38.9502 247.04 38.9346 247.28 38.9033V40.0283C246.978 40.0752 246.72 40.0986 246.506 40.0986ZM250.311 40.0049H249.014V31.7783H250.311V32.2549C250.545 32.057 250.837 31.9007 251.186 31.7861C251.54 31.6663 251.912 31.6064 252.303 31.6064C252.511 31.6064 252.756 31.6273 253.037 31.6689V32.9971C252.74 32.9294 252.501 32.8955 252.318 32.8955C251.917 32.8955 251.563 32.984 251.256 33.1611C250.954 33.333 250.719 33.5804 250.553 33.9033C250.391 34.221 250.311 34.5908 250.311 35.0127V40.0049ZM256.068 28.458V30.3486H254.771V28.458H256.068ZM256.068 31.7783V40.0049H254.771V31.7783H256.068ZM261.771 40.208C260.724 40.208 259.831 39.8825 259.091 39.2314V40.0049H257.794V28.458H259.091V32.5361C259.831 31.8851 260.724 31.5596 261.771 31.5596C262.552 31.5596 263.253 31.7471 263.873 32.1221C264.498 32.4919 264.984 33.0075 265.333 33.6689C265.688 34.3252 265.865 35.0648 265.865 35.8877C265.865 36.7106 265.688 37.4502 265.333 38.1064C264.984 38.7627 264.498 39.2783 263.873 39.6533C263.253 40.0231 262.552 40.208 261.771 40.208ZM261.771 38.8877C262.292 38.8877 262.755 38.7601 263.162 38.5049C263.568 38.2497 263.883 37.8955 264.107 37.4424C264.336 36.984 264.451 36.4658 264.451 35.8877C264.451 35.3044 264.336 34.7861 264.107 34.333C263.883 33.8747 263.568 33.5179 263.162 33.2627C262.755 33.0075 262.292 32.8799 261.771 32.8799C261.25 32.8799 260.787 33.0075 260.38 33.2627C259.974 33.5179 259.656 33.8747 259.427 34.333C259.198 34.7861 259.083 35.3044 259.083 35.8877C259.083 36.4658 259.198 36.984 259.427 37.4424C259.656 37.8955 259.974 38.2497 260.38 38.5049C260.787 38.7601 261.25 38.8877 261.771 38.8877ZM270.903 40.1689C270.252 40.1689 269.677 40.0387 269.177 39.7783C268.677 39.5179 268.289 39.1611 268.013 38.708C267.737 38.2497 267.599 37.734 267.599 37.1611V31.7783H268.896V36.7705C268.896 37.1924 268.976 37.5622 269.138 37.8799C269.299 38.1976 269.531 38.445 269.833 38.6221C270.135 38.7939 270.487 38.8799 270.888 38.8799C271.289 38.8799 271.64 38.7939 271.943 38.6221C272.25 38.445 272.484 38.1976 272.646 37.8799C272.812 37.5622 272.896 37.1924 272.896 36.7705V31.7783H274.2V40.0049H272.896V39.5283C272.661 39.721 272.367 39.8773 272.013 39.9971C271.659 40.1117 271.289 40.1689 270.903 40.1689ZM280.028 40.0986C279.226 40.0986 278.609 39.8799 278.177 39.4424C277.744 39.0049 277.528 38.3799 277.528 37.5674V33.083H275.934V31.7783H277.528V29.1377H278.825V31.7783H280.77V33.083H278.825V37.5674C278.825 37.7861 278.848 37.9919 278.895 38.1846C278.942 38.3721 279.067 38.5465 279.27 38.708C279.473 38.8695 279.783 38.9502 280.2 38.9502C280.361 38.9502 280.562 38.9346 280.802 38.9033V40.0283C280.499 40.0752 280.242 40.0986 280.028 40.0986ZM283.832 28.458V30.3486H282.536V28.458H283.832ZM283.832 31.7783V40.0049H282.536V31.7783H283.832ZM289.652 40.208C288.871 40.208 288.168 40.0231 287.543 39.6533C286.923 39.2783 286.436 38.7627 286.082 38.1064C285.733 37.4502 285.559 36.7106 285.559 35.8877C285.559 35.0648 285.733 34.3252 286.082 33.6689C286.436 33.0075 286.923 32.4919 287.543 32.1221C288.168 31.7471 288.871 31.5596 289.652 31.5596C290.434 31.5596 291.134 31.7471 291.754 32.1221C292.379 32.4919 292.869 33.0075 293.223 33.6689C293.577 34.3252 293.754 35.0648 293.754 35.8877C293.754 36.7106 293.577 37.4502 293.223 38.1064C292.869 38.7627 292.379 39.2783 291.754 39.6533C291.134 40.0231 290.434 40.208 289.652 40.208ZM289.652 38.8877C290.173 38.8877 290.637 38.7601 291.043 38.5049C291.449 38.2497 291.767 37.8955 291.996 37.4424C292.225 36.984 292.34 36.4658 292.34 35.8877C292.34 35.3044 292.225 34.7861 291.996 34.333C291.767 33.8747 291.449 33.5179 291.043 33.2627C290.637 33.0075 290.173 32.8799 289.652 32.8799C289.132 32.8799 288.668 33.0075 288.262 33.2627C287.856 33.5179 287.538 33.8747 287.309 34.333C287.085 34.7861 286.973 35.3044 286.973 35.8877C286.973 36.4658 287.085 36.984 287.309 37.4424C287.538 37.8955 287.856 38.2497 288.262 38.5049C288.668 38.7601 289.132 38.8877 289.652 38.8877ZM296.785 40.0049H295.488V31.7783H296.785V32.2549C297.019 32.057 297.311 31.9007 297.66 31.7861C298.014 31.6663 298.387 31.6064 298.777 31.6064C299.428 31.6064 300.004 31.7367 300.504 31.9971C301.009 32.2575 301.4 32.6169 301.676 33.0752C301.952 33.5335 302.09 34.0465 302.09 34.6143V40.0049H300.785V35.0127C300.785 34.5908 300.704 34.221 300.543 33.9033C300.381 33.5804 300.15 33.333 299.848 33.1611C299.545 32.984 299.194 32.8955 298.793 32.8955C298.392 32.8955 298.038 32.984 297.73 33.1611C297.428 33.333 297.194 33.5804 297.027 33.9033C296.866 34.221 296.785 34.5908 296.785 35.0127V40.0049Z" fill="white"/>
</g>
<circle cx="333" cy="34.0049" r="6" fill="#296FD9"/>
<path d="M353.164 31.2158L356.781 36.4814H356.969L360.586 31.2471V40.0049H362.039V28.3643H360.789L356.875 34.0596L352.953 28.3643H351.703V40.0049H353.164V31.2158ZM367.867 40.208C370.242 40.208 371.968 38.3799 371.968 35.8877C371.968 33.3877 370.242 31.5596 367.867 31.5596C365.492 31.5596 363.773 33.3877 363.773 35.8877C363.773 38.3799 365.492 40.208 367.867 40.208ZM367.867 38.8877C366.289 38.8877 365.187 37.6455 365.187 35.8877C365.187 34.1221 366.289 32.8799 367.867 32.8799C369.445 32.8799 370.554 34.1221 370.554 35.8877C370.554 37.6455 369.445 38.8877 367.867 38.8877ZM374.999 35.0127C374.999 33.7314 375.788 32.8955 377.007 32.8955C378.226 32.8955 378.999 33.7314 378.999 35.0127V40.0049H380.304V34.6143C380.304 32.9033 378.984 31.6064 376.992 31.6064C376.202 31.6064 375.46 31.8643 374.999 32.2549V31.7783H373.702V40.0049H374.999V35.0127ZM383.335 37.5518L384.687 36.0908L387.069 40.0049H388.608L385.585 35.1064L388.663 31.7783H387.054L383.335 35.7471V28.458H382.038V40.0049H383.335V37.5518ZM400.834 35.1533H395.287V36.4502H400.834V35.1533ZM408.92 34.6377H414.271V33.333H408.92V29.6689H415.029V28.3643H407.459V40.0049H408.92V34.6377ZM420.076 40.208C422.451 40.208 424.177 38.3799 424.177 35.8877C424.177 33.3877 422.451 31.5596 420.076 31.5596C417.701 31.5596 415.982 33.3877 415.982 35.8877C415.982 38.3799 417.701 40.208 420.076 40.208ZM420.076 38.8877C418.497 38.8877 417.396 37.6455 417.396 35.8877C417.396 34.1221 418.497 32.8799 420.076 32.8799C421.654 32.8799 422.763 34.1221 422.763 35.8877C422.763 37.6455 421.654 38.8877 420.076 38.8877ZM429.216 40.1689C430.005 40.1689 430.747 39.9111 431.208 39.5283V40.0049H432.513V31.7783H431.208V36.7705C431.208 38.0439 430.419 38.8799 429.2 38.8799C427.982 38.8799 427.208 38.0439 427.208 36.7705V31.7783H425.911V37.1611C425.911 38.8799 427.224 40.1689 429.216 40.1689ZM435.544 35.0127C435.544 33.7314 436.333 32.8955 437.552 32.8955C438.77 32.8955 439.544 33.7314 439.544 35.0127V40.0049H440.848V34.6143C440.848 32.9033 439.528 31.6064 437.536 31.6064C436.747 31.6064 436.005 31.8643 435.544 32.2549V31.7783H434.247V40.0049H435.544V35.0127ZM446.286 40.208C447.325 40.208 448.231 39.8799 448.965 39.2314V40.0049H450.262V28.458H448.965V32.5361C448.231 31.8877 447.325 31.5596 446.286 31.5596C443.911 31.5596 442.192 33.3877 442.192 35.8877C442.192 38.3799 443.911 40.208 446.286 40.208ZM446.286 38.8877C444.707 38.8877 443.606 37.6455 443.606 35.8877C443.606 34.1221 444.707 32.8799 446.286 32.8799C447.864 32.8799 448.973 34.1221 448.973 35.8877C448.973 37.6455 447.864 38.8877 446.286 38.8877ZM456.09 40.208C457.629 40.208 458.895 39.4346 459.613 38.1924L458.426 37.4658C457.934 38.3486 457.106 38.8877 456.09 38.8877C454.668 38.8877 453.629 37.833 453.434 36.3486H460.184V36.0596L460.192 35.8877C460.192 33.3877 458.465 31.5596 456.09 31.5596C453.715 31.5596 451.996 33.3877 451.996 35.8877C451.996 38.3799 453.715 40.208 456.09 40.208ZM453.481 35.1221C453.754 33.7783 454.762 32.8799 456.09 32.8799C457.426 32.8799 458.434 33.7783 458.699 35.1221H453.481ZM463.223 35.0127C463.223 33.7314 464.012 32.8955 465.23 32.8955C465.433 32.8955 465.676 32.9346 465.949 32.9971V31.6689C465.683 31.6299 465.433 31.6064 465.215 31.6064C464.426 31.6064 463.683 31.8643 463.223 32.2549V31.7783H461.926V40.0049H463.223V35.0127Z" fill="white"/>
<defs>
<filter id="filter0_d_1_2257" x="175" y="24.0049" width="132" height="28" filterUnits="userSpaceOnUse" color-interpolation-filters="sRGB">
<feFlood flood-opacity="0" result="BackgroundImageFix"/>
<feColorMatrix in="SourceAlpha" type="matrix" values="0 0 0 0 0 0 0 0 0 0 0 0 0 0 0 0 0 0 127 0" result="hardAlpha"/>
<feOffset dy="4"/>
<feGaussianBlur stdDeviation="2"/>
<feComposite in2="hardAlpha" operator="out"/>
<feColorMatrix type="matrix" values="0 0 0 0 0 0 0 0 0 0 0 0 0 0 0 0 0 0 0.25 0"/>
<feBlend mode="normal" in2="BackgroundImageFix" result="effect1_dropShadow_1_2257"/>
<feBlend mode="normal" in="SourceGraphic" in2="effect1_dropShadow_1_2257" result="shape"/>
</filter>
</defs>
</svg>
