<svg width="91" height="23" viewBox="0 0 91 23" fill="none" xmlns="http://www.w3.org/2000/svg">
<rect width="91" height="23" rx="4" fill="#00D98D"/>
<path d="M16.2074 10.1108H14.8778C14.8267 9.8267 14.7315 9.5767 14.5923 9.3608C14.4531 9.14489 14.2827 8.96165 14.081 8.81108C13.8793 8.66051 13.6534 8.54687 13.4034 8.47017C13.1563 8.39347 12.8935 8.35511 12.6151 8.35511C12.1122 8.35511 11.6619 8.48153 11.2642 8.73438C10.8693 8.98722 10.5568 9.35795 10.3267 9.84659C10.0994 10.3352 9.9858 10.9318 9.9858 11.6364C9.9858 12.3466 10.0994 12.946 10.3267 13.4347C10.5568 13.9233 10.8707 14.2926 11.2685 14.5426C11.6662 14.7926 12.1136 14.9176 12.6108 14.9176C12.8864 14.9176 13.1477 14.8807 13.3949 14.8068C13.6449 14.7301 13.8707 14.6179 14.0724 14.4702C14.2741 14.3224 14.4446 14.142 14.5838 13.929C14.7259 13.7131 14.8239 13.4659 14.8778 13.1875L16.2074 13.1918C16.1364 13.6207 15.9986 14.0156 15.794 14.3764C15.5923 14.7344 15.3324 15.044 15.0142 15.3054C14.6989 15.5639 14.3381 15.7642 13.9318 15.9062C13.5256 16.0483 13.0824 16.1193 12.6023 16.1193C11.8466 16.1193 11.1733 15.9403 10.5824 15.5824C9.99148 15.2216 9.52557 14.706 9.18466 14.0355C8.84659 13.3651 8.67756 12.5653 8.67756 11.6364C8.67756 10.7045 8.84801 9.90483 9.18892 9.23722C9.52983 8.56676 9.99574 8.05256 10.5866 7.6946C11.1776 7.33381 11.8494 7.15341 12.6023 7.15341C13.0653 7.15341 13.4972 7.22017 13.8977 7.35369C14.3011 7.48437 14.6634 7.67756 14.9844 7.93324C15.3054 8.18608 15.571 8.49574 15.7812 8.86222C15.9915 9.22585 16.1335 9.64205 16.2074 10.1108ZM25.364 11.6364C25.364 12.5682 25.1935 13.3693 24.8526 14.0398C24.5117 14.7074 24.0444 15.2216 23.4506 15.5824C22.8597 15.9403 22.1879 16.1193 21.435 16.1193C20.6793 16.1193 20.0046 15.9403 19.4109 15.5824C18.82 15.2216 18.354 14.706 18.0131 14.0355C17.6722 13.3651 17.5018 12.5653 17.5018 11.6364C17.5018 10.7045 17.6722 9.90483 18.0131 9.23722C18.354 8.56676 18.82 8.05256 19.4109 7.6946C20.0046 7.33381 20.6793 7.15341 21.435 7.15341C22.1879 7.15341 22.8597 7.33381 23.4506 7.6946C24.0444 8.05256 24.5117 8.56676 24.8526 9.23722C25.1935 9.90483 25.364 10.7045 25.364 11.6364ZM24.06 11.6364C24.06 10.9261 23.945 10.3281 23.7148 9.84233C23.4876 9.35369 23.1751 8.98438 22.7773 8.73438C22.3825 8.48153 21.935 8.35511 21.435 8.35511C20.9322 8.35511 20.4833 8.48153 20.0884 8.73438C19.6935 8.98438 19.381 9.35369 19.1509 9.84233C18.9237 10.3281 18.81 10.9261 18.81 11.6364C18.81 12.3466 18.9237 12.946 19.1509 13.4347C19.381 13.9205 19.6935 14.2898 20.0884 14.5426C20.4833 14.7926 20.9322 14.9176 21.435 14.9176C21.935 14.9176 22.3825 14.7926 22.7773 14.5426C23.1751 14.2898 23.4876 13.9205 23.7148 13.4347C23.945 12.946 24.06 12.3466 24.06 11.6364ZM27.0057 7.27273H28.6037L31.3821 14.0568H31.4844L34.2628 7.27273H35.8608V16H34.608V9.68466H34.527L31.9531 15.9872H30.9134L28.3395 9.6804H28.2585V16H27.0057V7.27273ZM37.7752 16V7.27273H40.886C41.565 7.27273 42.1275 7.39631 42.5735 7.64347C43.0195 7.89062 43.3533 8.22869 43.5749 8.65767C43.7965 9.08381 43.9073 9.56392 43.9073 10.098C43.9073 10.6349 43.7951 11.1179 43.5707 11.5469C43.3491 11.973 43.0138 12.3111 42.565 12.5611C42.119 12.8082 41.5579 12.9318 40.8817 12.9318H38.7425V11.8153H40.7624C41.1914 11.8153 41.5394 11.7415 41.8065 11.5938C42.0735 11.4432 42.2695 11.2386 42.3945 10.9801C42.5195 10.7216 42.582 10.4276 42.582 10.098C42.582 9.76847 42.5195 9.47585 42.3945 9.22017C42.2695 8.96449 42.0721 8.7642 41.8022 8.61932C41.5352 8.47443 41.1829 8.40199 40.7454 8.40199H39.092V16H37.7752ZM45.451 16V7.27273H46.7678V14.8665H50.7223V16H45.451ZM52.2244 16V7.27273H57.696V8.40625H53.5412V11.0653H57.4105V12.1946H53.5412V14.8665H57.7472V16H52.2244ZM59.0245 8.40625V7.27273H65.7788V8.40625H63.0558V16H61.7433V8.40625H59.0245ZM67.2713 16V7.27273H72.7429V8.40625H68.5881V11.0653H72.4574V12.1946H68.5881V14.8665H72.794V16H67.2713ZM77.3271 16H74.5018V7.27273H77.4165C78.2717 7.27273 79.006 7.44744 79.6197 7.79688C80.2333 8.14347 80.7035 8.64205 81.0302 9.29261C81.3597 9.94034 81.5245 10.7173 81.5245 11.6236C81.5245 12.5327 81.3583 13.3139 81.0259 13.9673C80.6964 14.6207 80.2191 15.1236 79.5941 15.4759C78.9691 15.8253 78.2134 16 77.3271 16ZM75.8185 14.8494H77.2546C77.9194 14.8494 78.4719 14.7244 78.9123 14.4744C79.3526 14.2216 79.6822 13.8565 79.9009 13.3793C80.1197 12.8991 80.229 12.3139 80.229 11.6236C80.229 10.9389 80.1197 10.358 79.9009 9.88068C79.685 9.40341 79.3626 9.04119 78.9336 8.79403C78.5046 8.54687 77.9719 8.4233 77.3356 8.4233H75.8185V14.8494Z" fill="#06111C"/>
</svg>
