<svg width="48" height="48" viewBox="0 0 48 48" fill="none" xmlns="http://www.w3.org/2000/svg">
<g id="planet-2">
<g id="Planet">
<g id="Rings">
<g id="Group" opacity="0.3">
<path id="Vector" opacity="0.3" d="M23.9878 42.6522C20.2763 42.6533 16.6479 41.5537 13.5613 39.4925C10.4748 37.4314 8.06884 34.5011 6.64774 31.0725C5.22665 27.6438 4.85426 23.8707 5.57766 20.2304C6.30105 16.5901 8.08775 13.2461 10.7118 10.6213C13.3358 7.99644 16.6793 6.20875 20.3194 5.48426C23.9595 4.75978 27.7327 5.13105 31.1618 6.55112C34.5909 7.9712 37.5218 10.3763 39.5839 13.4622C41.646 16.5481 42.7467 20.1763 42.7467 23.8878C42.7408 28.8616 40.7627 33.6301 37.2462 37.1477C33.7296 40.6653 28.9617 42.6448 23.9878 42.6522ZM23.9878 5.56514C20.3624 5.56404 16.818 6.63817 13.8031 8.65167C10.7882 10.6652 8.43816 13.5276 7.05025 16.8769C5.66234 20.2261 5.29892 23.9118 6.00594 27.4676C6.71296 31.0235 8.45866 34.2898 11.0222 36.8533C13.5858 39.4169 16.8521 41.1626 20.408 41.8696C23.9638 42.5767 27.6495 42.2132 30.9987 40.8253C34.348 39.4374 37.2104 37.0874 39.2239 34.0725C41.2374 31.0575 42.3116 27.5132 42.3104 23.8878C42.3045 19.0301 40.3722 14.3731 36.9373 10.9383C33.5025 7.50338 28.8455 5.57106 23.9878 5.56514Z" fill="url(#paint0_linear_1_1561)"/>
</g>
<g id="Group_2" opacity="0.2">
<path id="Vector_2" opacity="0.2" d="M23.9878 44.0109C20.0055 44.0109 16.1127 42.8301 12.8015 40.6176C9.49037 38.4052 6.90964 35.2606 5.38569 31.5814C3.86174 27.9023 3.46302 23.8539 4.23992 19.9481C5.01683 16.0424 6.93447 12.4547 9.75036 9.63879C12.5663 6.8229 16.1539 4.90525 20.0597 4.12835C23.9654 3.35144 28.0139 3.75018 31.693 5.27413C35.3721 6.79808 38.5167 9.3788 40.7292 12.6899C42.9416 16.0011 44.1225 19.8939 44.1225 23.8762C44.1225 29.2163 42.0012 34.3376 38.2252 38.1136C34.4492 41.8896 29.3278 44.0109 23.9878 44.0109ZM23.9878 4.20568C20.0951 4.20568 16.2898 5.35999 13.0532 7.52265C9.81657 9.6853 7.29391 12.7592 5.80424 16.3555C4.31458 19.9519 3.92483 23.9092 4.68425 27.7271C5.44367 31.545 7.31817 35.0519 10.0707 37.8045C12.8232 40.557 16.3302 42.4315 20.1481 43.1909C23.9659 43.9503 27.9233 43.5606 31.5196 42.0709C35.116 40.5812 38.1899 38.0586 40.3525 34.822C42.5152 31.5853 43.6695 27.7801 43.6695 23.8874C43.6621 18.6697 41.5861 13.6679 37.8967 9.97849C34.2072 6.28906 29.2054 4.21308 23.9878 4.20568Z" fill="url(#paint1_linear_1_1561)"/>
</g>
<g id="Group_3" opacity="0.1">
<path id="Vector_3" opacity="0.1" d="M23.9875 45.6841C19.6733 45.6841 15.4561 44.4048 11.869 42.008C8.28194 39.6112 5.48615 36.2045 3.8352 32.2188C2.18426 28.2331 1.75229 23.8473 2.59394 19.616C3.43558 15.3848 5.51303 11.4982 8.56359 8.44762C11.6141 5.39707 15.5008 3.31962 19.732 2.47797C23.9633 1.63633 28.349 2.06829 32.3348 3.71924C36.3205 5.37018 39.7272 8.16596 42.124 11.753C44.5208 15.3401 45.8001 19.5573 45.8001 23.8715C45.8001 29.6565 43.502 35.2047 39.4113 39.2953C35.3207 43.386 29.7725 45.6841 23.9875 45.6841ZM23.9875 2.52866C19.7629 2.52866 15.6333 3.78138 12.1207 6.1284C8.60813 8.47542 5.87041 11.8113 4.25376 15.7143C2.6371 19.6173 2.21411 23.912 3.03828 28.0553C3.86244 32.1987 5.89675 36.0046 8.88394 38.9918C11.8711 41.979 15.677 44.0133 19.8204 44.8374C23.9638 45.6616 28.2585 45.2386 32.1614 43.622C36.0644 42.0053 39.4003 39.2676 41.7473 35.755C44.0943 32.2424 45.3471 28.1128 45.3471 23.8883C45.3397 18.2256 43.0869 12.797 39.0828 8.79291C35.0787 4.78881 29.6501 2.53606 23.9875 2.52866Z" fill="url(#paint2_linear_1_1561)"/>
</g>
<g id="Group_4" opacity="0.1">
<path id="Vector_4" opacity="0.1" d="M23.988 47.7755C19.2632 47.7766 14.6442 46.3766 10.7152 43.7524C6.78613 41.1283 3.72353 37.3979 1.91467 33.0331C0.105814 28.6684 -0.368024 23.8652 0.553053 19.2311C1.47413 14.597 3.74875 10.3401 7.08927 6.99876C10.4298 3.65745 14.6862 1.38182 19.3201 0.459658C23.954 -0.462504 28.7572 0.0102232 33.1225 1.81806C37.4877 3.62589 41.2188 6.68762 43.8438 10.616C46.4689 14.5445 47.87 19.1631 47.87 23.8879C47.8626 30.22 45.3442 36.2908 40.8673 40.7688C36.3903 45.2469 30.3201 47.7666 23.988 47.7755ZM23.988 0.4421C19.3527 0.450946 14.8241 1.83353 10.9744 4.41516C7.12464 6.99679 4.1265 10.6616 2.35881 14.9465C0.591111 19.2315 0.133176 23.9442 1.04288 28.4893C1.95259 33.0344 4.18912 37.2078 7.46985 40.4823C10.7506 43.7568 14.9283 45.9853 19.4751 46.8864C24.0219 47.7874 28.7338 47.3205 33.0153 45.5446C37.2969 43.7688 40.956 40.7637 43.5302 36.909C46.1045 33.0543 47.4785 28.5231 47.4785 23.8879C47.4666 17.6656 44.9865 11.7021 40.5825 7.30649C36.1784 2.91083 30.2103 0.442089 23.988 0.4421Z" fill="url(#paint3_linear_1_1561)"/>
</g>
</g>
<g id="planet">
<path id="Vector_5" d="M24.0042 41.1141C33.5181 41.1141 41.2306 33.4016 41.2306 23.8878C41.2306 14.3739 33.5181 6.66138 24.0042 6.66138C14.4903 6.66138 6.77783 14.3739 6.77783 23.8878C6.77783 33.4016 14.4903 41.1141 24.0042 41.1141Z" fill="#E0E0E0"/>
<path id="Vector_6" opacity="0.7" d="M24.0042 41.1141C33.5181 41.1141 41.2306 33.4016 41.2306 23.8878C41.2306 14.3739 33.5181 6.66138 24.0042 6.66138C14.4903 6.66138 6.77783 14.3739 6.77783 23.8878C6.77783 33.4016 14.4903 41.1141 24.0042 41.1141Z" fill="white"/>
<path id="Vector_7" d="M22.0752 13.5522C21.9522 13.2557 21.8235 12.9929 21.6893 12.6853C21.4488 12.1875 18.8145 7.46141 18.6467 7.51734C17.6032 7.85602 16.5953 8.29625 15.6377 8.83169C16.6836 10.3865 17.9979 11.9078 18.932 13.513C19.5638 14.7234 20.0788 15.9913 20.47 17.2995C20.6324 17.8576 20.8754 18.3889 21.1915 18.8767C21.3524 19.1196 21.5606 19.3275 21.8038 19.488C22.0469 19.6485 22.32 19.7583 22.6065 19.8107C22.6981 19.836 22.7947 19.836 22.8862 19.8107C23.0931 19.7212 23.1435 19.464 23.1658 19.2514C23.2443 17.2932 22.8711 15.3431 22.0752 13.5522Z" fill="#E0E0E0"/>
<path id="Vector_8" d="M36.622 35.611C33.7025 32.7753 28.2717 27.4676 25.9954 25.0682C24.2615 23.2561 21.8677 22.4339 20.1227 20.6945C18.9314 19.4976 18.4448 17.7861 17.9862 16.1642C17.7177 15.2525 17.2256 12.3777 15.8609 12.7021C15.8161 13.1719 16.1014 14.2514 15.5924 14.5758C15.0835 14.9001 14.7087 13.9437 14.5465 13.6641C14.3843 13.3844 12.8015 10.8117 12.8015 10.7893C12.3093 11.2126 11.8406 11.6626 11.3977 12.1372C12.9134 14.9337 15.3519 19.4081 15.9056 20.3477C16.7222 21.718 15.9056 23.2281 14.8877 21.7571C14.2557 20.8455 11.448 17.2828 9.41218 14.7044C8.7478 15.7613 8.19843 16.8863 7.77344 18.0602C9.37303 20.4092 11.1963 23.2896 13.8027 24.6263C14.2256 24.8652 14.6977 25.0036 15.1827 25.0308C15.6676 25.0579 16.1523 24.9731 16.5992 24.7829C17.1585 24.4865 17.6562 23.9384 18.2771 23.7874C19.0824 23.6028 19.8766 24.1006 20.5422 24.5816C21.9293 25.5827 23.2772 26.6342 24.558 27.764C25.2224 28.2543 25.8302 28.817 26.3701 29.4419C26.633 29.8222 26.6833 30.6668 26.2471 30.98C26.2471 31.1422 25.6206 31.1142 25.5312 31.0918C25.3008 31.0096 25.0883 30.8843 24.9047 30.7227C24.3454 30.3424 23.719 30.0012 23.1318 29.6433C22.6731 29.3636 22.0915 29.084 21.6328 29.3636C21.6383 29.6007 21.6939 29.834 21.7961 30.048C21.8983 30.262 22.0447 30.4519 22.2257 30.6052C23.3764 31.8683 24.6504 33.0131 26.0289 34.0226C26.2825 34.2306 26.5701 34.3933 26.8791 34.5035C27.0332 34.5575 27.1978 34.5749 27.3599 34.5545C27.5219 34.5342 27.6771 34.4765 27.8131 34.3861C28.0815 34.1847 28.2102 33.8268 28.501 33.659C28.6426 33.5886 28.8 33.5562 28.9579 33.565C29.1158 33.5739 29.2686 33.6236 29.4015 33.7093C30.0223 34.0673 30.5201 34.744 31.0794 35.1691C32.0961 36.0096 33.046 36.9278 33.9206 37.9153C34.8986 37.243 35.8039 36.4707 36.622 35.611Z" fill="#E0E0E0"/>
<path id="Vector_9" d="M23.9876 41.1143C26.1369 41.1144 28.2672 40.7122 30.2685 39.9286C27.4329 37.3782 22.9305 33.3792 21.5826 32.5067C20.3802 31.7293 19.5524 32.9374 18.8421 33.7595C18.5311 34.2316 18.076 34.5906 17.5445 34.7831C16.7391 34.9453 15.9561 34.1119 15.9337 33.3345C15.958 32.7237 16.2046 32.1429 16.6273 31.7013C17.0855 31.2909 17.4646 30.7999 17.7458 30.2528C18.0702 29.3411 17.5389 28.3735 17.0299 27.5569C16.823 27.2325 16.5825 26.8746 16.2022 26.7963C15.682 26.6788 15.229 27.1319 14.8543 27.5122C14.4067 27.9639 13.9095 28.3635 13.3721 28.7035C13.0462 28.9417 12.6569 29.078 12.2535 29.095C11.8104 29.0287 11.3963 28.8343 11.0622 28.5357C10.1929 27.9446 9.42433 27.2176 8.7859 26.3824C8.43354 25.9294 8.08678 25.4763 7.74001 25.0177C7.54985 24.7604 6.76124 24.0054 6.76124 23.7034V23.8712C6.75903 26.1348 7.20297 28.3766 8.06769 30.4686C8.93241 32.5605 10.201 34.4615 11.8008 36.0629C13.4006 37.6643 15.3004 38.9347 17.3915 39.8014C19.4826 40.6682 21.724 41.1143 23.9876 41.1143Z" fill="#E0E0E0"/>
<path id="Vector_10" d="M31.0348 8.16626C30.9565 9.09469 31.3536 10.1965 32.6847 11.9583C33.3783 12.8867 34.1054 13.7872 34.838 14.6821C35.3973 15.3812 36.4432 16.209 36.432 17.1821C36.3882 17.5046 36.2769 17.8143 36.1054 18.0909C35.9339 18.3675 35.7059 18.6048 35.4365 18.7873C35.0061 19.1394 34.5436 19.4503 34.055 19.7158C33.6467 19.9339 33.1658 20.208 33.1546 20.6666C33.1434 21.1252 33.5573 21.3881 33.9208 21.6006C35.3079 22.4116 36.7173 23.1834 38.1491 23.9161C38.8433 24.1818 39.5026 24.5311 40.1122 24.9564C40.4758 25.2864 40.6995 25.7506 41.0854 26.075C41.2104 25.355 41.2629 24.6242 41.242 23.8937C41.2419 20.5663 40.2779 17.3102 38.4664 14.5191C36.655 11.728 34.0738 9.52143 31.0348 8.16626Z" fill="#E0E0E0"/>
<path id="Vector_11" d="M30.9395 18.507C31.1554 18.3505 31.3815 18.2084 31.6163 18.082C32.1252 17.8079 32.7348 17.5227 32.8523 16.9634C33.0313 16.2027 32.265 15.5819 31.5995 15.1792L29.5189 13.9096C29.174 13.7202 28.8577 13.4829 28.5793 13.2049C28.3175 12.8784 28.1098 12.5121 27.964 12.1199C27.5433 11.1111 27.1883 10.0761 26.9014 9.02135C26.7951 8.62984 26.577 6.90161 25.9785 6.83449C25.3231 6.75865 24.664 6.71944 24.0042 6.71704C23.2898 6.71831 22.5762 6.76502 21.8677 6.85686C22.22 6.85686 23.0142 8.93186 23.1261 9.24507C23.6579 10.6124 24.0843 12.0185 24.4013 13.451C24.6586 14.8548 26.4092 15.5595 27.5054 16.3258C27.6729 16.4184 27.8091 16.5585 27.8969 16.7285C27.9257 16.8393 27.9321 16.9547 27.9158 17.068C27.8995 17.1814 27.8608 17.2903 27.8018 17.3884C27.4471 18.0167 27.0587 18.6253 26.6385 19.2118C26.2146 19.8062 26.0399 20.5429 26.1519 21.2644C26.3734 21.9024 26.7709 22.4647 27.2985 22.8864C30.9787 26.4043 34.8658 29.7937 38.3502 33.4795C39.0923 32.3644 39.7023 31.167 40.1679 29.9111C40.291 29.57 38.2831 27.9536 38.0202 27.7411C36.8401 26.8014 35.5034 26.0296 34.3177 25.0732L31.0122 22.3886C30.4789 22.0399 30.0652 21.5363 29.8265 20.9456C29.7572 20.6501 29.7554 20.3427 29.8212 20.0464C29.8871 19.7501 30.0189 19.4725 30.2068 19.2341C30.4121 18.9554 30.6592 18.7102 30.9395 18.507Z" fill="#E0E0E0"/>
<g id="Group_5" opacity="0.2">
<path id="Vector_12" opacity="0.2" d="M25.9282 34.2287C26.0512 34.5195 26.1799 34.788 26.3141 35.09C26.5546 35.5934 29.1945 40.3139 29.3623 40.2579C30.4078 39.9198 31.4176 39.4796 32.3769 38.9436C31.331 37.3887 30.0166 35.8674 29.0882 34.2622C28.4522 33.0531 27.9352 31.785 27.5445 30.4758C27.3689 29.9159 27.1126 29.3846 26.7839 28.8986C26.6228 28.6559 26.4145 28.4481 26.1714 28.2877C25.9283 28.1272 25.6554 28.0173 25.3689 27.9646C25.2789 27.9418 25.1848 27.9418 25.0948 27.9646C24.8879 28.054 24.832 28.3169 24.8152 28.5239C24.7413 30.4859 25.1222 32.4384 25.9282 34.2287Z" fill="white"/>
<path id="Vector_13" opacity="0.2" d="M11.3809 12.1645C14.3004 15.0058 19.7312 20.3079 22.0075 22.7073C23.7414 24.5194 26.1296 25.3416 27.8746 27.0866C29.0715 28.2779 29.5525 29.995 30.0167 31.6169C30.2796 32.5286 30.7717 35.4034 32.1364 35.079C32.1868 34.6092 31.9015 33.5241 32.4049 33.2053C32.9082 32.8865 33.2942 33.8374 33.4564 34.1114C33.6186 34.3855 35.2126 36.9638 35.1734 36.9638C35.6662 36.5392 36.1366 36.0892 36.5828 35.6159C35.0671 32.8194 32.6286 28.345 32.0749 27.4054C31.2583 26.0407 32.0749 24.5306 33.0872 25.996C33.7192 26.9076 36.5325 30.4704 38.5628 33.0487C39.2293 31.993 39.7788 30.8678 40.2015 29.693C38.6019 27.3495 36.7786 24.4635 34.1723 23.1268C33.749 22.8891 33.2769 22.7514 32.7922 22.7243C32.3075 22.6972 31.823 22.7813 31.3758 22.9702C30.7885 23.2722 30.3243 23.8147 29.6979 23.9657C28.8925 24.1503 28.1039 23.6525 27.4327 23.1715C26.0457 22.1704 24.6978 21.1189 23.417 19.9891C22.7542 19.4989 22.1482 18.9361 21.6104 18.3112C21.342 17.9253 21.2916 17.0808 21.7279 16.7676C21.7279 16.6054 22.3543 16.6333 22.4438 16.6557C22.6742 16.7413 22.888 16.8662 23.0758 17.0248C23.6351 17.4108 24.2559 17.7463 24.8488 18.1099C25.3018 18.3839 25.8835 18.6692 26.3421 18.3895C26.3374 18.1515 26.2821 17.9171 26.1799 17.7021C26.0777 17.4871 25.9309 17.2962 25.7492 17.1423C24.5955 15.8823 23.3218 14.7378 21.946 13.725C21.692 13.5219 21.4068 13.3614 21.1015 13.2496C20.9468 13.1948 20.7816 13.1764 20.6186 13.1958C20.4556 13.2152 20.2994 13.2719 20.1618 13.3614C19.8934 13.5628 19.7647 13.9207 19.4739 14.0885C19.3323 14.159 19.1749 14.1913 19.017 14.1825C18.8591 14.1737 18.7063 14.124 18.5734 14.0382C17.9526 13.6858 17.4828 13.0035 16.8955 12.5784C15.8802 11.7365 14.9303 10.8184 14.0543 9.83228C13.0872 10.5181 12.1916 11.2994 11.3809 12.1645Z" fill="white"/>
<path id="Vector_14" opacity="0.2" d="M23.9875 6.66138C21.8381 6.6608 19.7077 7.06298 17.7065 7.84709C20.5366 10.4031 25.039 14.3965 26.3869 15.269C27.5894 16.0464 28.4227 14.8383 29.1274 14.0162C29.4433 13.5464 29.8993 13.1882 30.4306 12.9926C31.236 12.8304 32.0134 13.6694 32.0358 14.4412C32.0136 15.0513 31.7689 15.6322 31.3478 16.0744C30.889 16.4865 30.5099 16.9794 30.2292 17.5285C29.9048 18.4346 30.4362 19.4022 30.9507 20.2188C31.1141 20.5719 31.4092 20.8469 31.7729 20.985C32.2931 21.0969 32.7461 20.6438 33.1208 20.2635C33.5705 19.808 34.0716 19.4063 34.6141 19.0666C34.9383 18.8242 35.3283 18.6858 35.7327 18.6695C36.1755 18.7371 36.5892 18.9313 36.924 19.2288C37.7906 19.8234 38.5586 20.5499 39.2004 21.3821C39.5472 21.8351 39.8995 22.2938 40.2407 22.7524C40.4364 23.0041 41.2194 23.7591 41.2194 24.0667C41.2194 24.0052 41.2194 23.9493 41.2194 23.8934C41.2202 21.6302 40.775 19.3891 39.9092 17.2981C39.0435 15.2071 37.7742 13.3072 36.174 11.7069C34.5737 10.1066 32.6737 8.83731 30.5827 7.97159C28.4917 7.10586 26.2506 6.66064 23.9875 6.66138Z" fill="white"/>
<path id="Vector_15" opacity="0.2" d="M16.9684 39.6148C17.0523 38.6807 16.6496 37.5789 15.3241 35.8171C14.6249 34.8943 13.9034 33.9882 13.1708 33.0933C12.6115 32.3942 11.5656 31.5665 11.5768 30.5933C11.6164 30.2703 11.726 29.9598 11.8979 29.6836C12.0699 29.4073 12.3 29.1719 12.5723 28.9937C13.0038 28.6361 13.4704 28.3232 13.965 28.0597C14.3676 27.8415 14.8542 27.5675 14.8598 27.1089C14.8654 26.6502 14.4571 26.393 14.0936 26.1748C12.7065 25.3657 11.2971 24.5939 9.8653 23.8593C9.17108 23.5936 8.51183 23.2443 7.90216 22.819C7.54421 22.4946 7.34287 22.0304 6.93459 21.7004C6.80679 22.4201 6.75431 23.1512 6.77798 23.8817C6.77693 27.2079 7.73854 30.4633 9.54677 33.2551C11.355 36.0468 13.9326 38.2556 16.9684 39.6148Z" fill="white"/>
<path id="Vector_16" opacity="0.2" d="M17.0693 29.3018C16.8517 29.4541 16.6258 29.5941 16.3925 29.7212C15.878 30.0009 15.2739 30.2805 15.1509 30.8398C14.9775 31.6005 15.7382 32.2213 16.4037 32.6296L18.4843 33.8992C18.8304 34.0867 19.147 34.3242 19.4239 34.6039C19.6876 34.927 19.8955 35.2919 20.0392 35.6834C20.4593 36.6949 20.8161 37.7316 21.1074 38.7875C21.2137 39.1734 21.4318 40.9016 22.0247 40.9687C22.6817 41.0475 23.3429 41.0867 24.0046 41.0862C24.7169 41.084 25.4285 41.0391 26.1355 40.9519C25.7887 40.9519 25.0169 38.8714 24.8771 38.5581C24.347 37.1907 23.9226 35.7846 23.6075 34.3522C23.3446 32.9484 21.5996 32.2493 20.4978 31.4774C20.3307 31.3862 20.1959 31.2456 20.1119 31.0747C20.0818 30.9641 20.0747 30.8484 20.091 30.7349C20.1074 30.6214 20.1468 30.5124 20.2069 30.4148C20.5617 29.7866 20.9501 29.1779 21.3703 28.5915C21.7923 27.9962 21.9649 27.2596 21.8513 26.5388C21.6316 25.9014 21.2337 25.3405 20.7047 24.9225C17.0245 21.3989 13.1374 18.0151 9.65299 14.3293C8.90694 15.4591 8.29859 16.6739 7.84086 17.948C7.71223 18.2836 9.7257 19.9055 9.98857 20.1125C11.1687 21.0521 12.4998 21.8239 13.6855 22.7859L16.9966 25.465C17.5281 25.8107 17.9417 26.3101 18.1823 26.8968C18.2521 27.1926 18.2536 27.5005 18.1868 27.797C18.1199 28.0936 17.9864 28.371 17.7964 28.6082C17.5902 28.8746 17.3451 29.1084 17.0693 29.3018Z" fill="white"/>
</g>
<path id="Vector_17" opacity="0.05" d="M41.0353 26.4767C39.7657 32.8416 28.2777 38.6862 19.0716 34.7264C9.28389 30.5372 7.44381 17.2987 12.2314 11.303C10.2263 13.1803 8.69925 15.5099 7.77757 18.0975C6.85588 20.685 6.56631 23.4554 6.93302 26.1776C7.29973 28.8998 8.31208 31.4948 9.88562 33.7462C11.4592 35.9976 13.5483 37.8401 15.9787 39.1199C18.409 40.3998 21.1103 41.0799 23.8569 41.1035C26.6036 41.1272 29.3161 40.4937 31.7682 39.2558C34.2202 38.018 36.3407 36.2118 37.9528 33.9878C39.5649 31.7638 40.6217 29.1866 41.0353 26.4711V26.4767Z" fill="black"/>
<path id="Vector_18" opacity="0.6" d="M27.0527 23.0655C31.0621 23.0655 34.3123 19.8152 34.3123 15.8058C34.3123 11.7964 31.0621 8.54614 27.0527 8.54614C23.0432 8.54614 19.793 11.7964 19.793 15.8058C19.793 19.8152 23.0432 23.0655 27.0527 23.0655Z" fill="white"/>
<path id="Vector_19" opacity="0.6" d="M36.1689 26.925C38.0037 26.925 39.4911 25.4376 39.4911 23.6028C39.4911 21.7679 38.0037 20.2805 36.1689 20.2805C34.3341 20.2805 32.8467 21.7679 32.8467 23.6028C32.8467 25.4376 34.3341 26.925 36.1689 26.925Z" fill="white"/>
<path id="Vector_20" opacity="0.05" d="M6.77832 23.8872C6.77742 27.6355 7.99909 31.2818 10.258 34.2729C12.5169 37.264 15.6898 39.4368 19.2953 40.4615C22.9008 41.4862 26.7421 41.307 30.2365 39.951C33.7309 38.595 36.6877 36.1363 38.6583 32.9478C38.2668 33.5519 33.3953 41.2199 21.3536 39.0106C8.81416 36.7175 6.77832 23.9096 6.98526 21.1858C6.84838 22.0798 6.7792 22.9828 6.77832 23.8872Z" fill="black"/>
</g>
</g>
</g>
<defs>
<linearGradient id="paint0_linear_1_1561" x1="23.9822" y1="5.12329" x2="23.9822" y2="42.6522" gradientUnits="userSpaceOnUse">
<stop stop-color="#7A4BFF"/>
<stop offset="0.953125" stop-color="#B4AEFF"/>
</linearGradient>
<linearGradient id="paint1_linear_1_1561" x1="23.9878" y1="3.74146" x2="23.9878" y2="44.0109" gradientUnits="userSpaceOnUse">
<stop stop-color="#7A4BFF"/>
<stop offset="0.953125" stop-color="#B4AEFF"/>
</linearGradient>
<linearGradient id="paint2_linear_1_1561" x1="23.9874" y1="2.05884" x2="23.9874" y2="45.6841" gradientUnits="userSpaceOnUse">
<stop stop-color="#7A4BFF"/>
<stop offset="0.953125" stop-color="#B4AEFF"/>
</linearGradient>
<linearGradient id="paint3_linear_1_1561" x1="23.9824" y1="0.000244141" x2="23.9824" y2="47.7755" gradientUnits="userSpaceOnUse">
<stop stop-color="#7A4BFF"/>
<stop offset="0.953125" stop-color="#B4AEFF"/>
</linearGradient>
</defs>
</svg>
