<svg width="188" height="156" viewBox="0 0 188 156" fill="none" xmlns="http://www.w3.org/2000/svg">
<g id="Shadow--inject-1">
<path id="shadow--inject-1" d="M56.3353 90.2758L32.337 104.134C31.9374 104.337 31.4956 104.443 31.0474 104.443C30.5993 104.443 30.1574 104.337 29.7579 104.134L0.928375 87.4849C0.77309 87.4317 0.638299 87.3314 0.542863 87.1979C0.447426 87.0644 0.396118 86.9044 0.396118 86.7402C0.396118 86.5761 0.447426 86.4161 0.542863 86.2826C0.638299 86.1491 0.77309 86.0487 0.928375 85.9956L24.9268 72.1378C25.326 71.9375 25.7666 71.8333 26.2133 71.8333C26.6599 71.8333 27.1005 71.9375 27.4997 72.1378L56.3353 88.7986C56.4865 88.8542 56.6169 88.9549 56.709 89.0869C56.8012 89.219 56.8505 89.3762 56.8505 89.5372C56.8505 89.6982 56.8012 89.8554 56.709 89.9875C56.6169 90.1196 56.4865 90.2202 56.3353 90.2758Z" fill="#002132"/>
<path id="shadow--inject-1_2" d="M97.4366 66.5612L73.4322 80.419C73.0337 80.6221 72.5929 80.728 72.1457 80.728C71.6985 80.728 71.2576 80.6221 70.8592 80.419L42.0236 63.7764C41.8683 63.7232 41.7335 63.6229 41.6381 63.4894C41.5426 63.3559 41.4913 63.1958 41.4913 63.0317C41.4913 62.8676 41.5426 62.7076 41.6381 62.5741C41.7335 62.4405 41.8683 62.3402 42.0236 62.2871L66.028 48.4293C66.4265 48.2262 66.8673 48.1204 67.3145 48.1204C67.7617 48.1204 68.2026 48.2262 68.601 48.4293L97.4366 65.078C97.5926 65.1295 97.7285 65.2289 97.8247 65.362C97.921 65.4952 97.9728 65.6553 97.9728 65.8196C97.9728 65.9839 97.921 66.144 97.8247 66.2772C97.7285 66.4103 97.5926 66.5097 97.4366 66.5612Z" fill="#002132"/>
<path id="shadow--inject-1_3" d="M138.526 42.8302L114.503 56.7122C114.105 56.9153 113.664 57.0211 113.217 57.0211C112.769 57.0211 112.329 56.9153 111.93 56.7122L83.0945 40.0635C82.9385 40.012 82.8026 39.9126 82.7064 39.7794C82.6101 39.6463 82.5583 39.4861 82.5583 39.3218C82.5583 39.1575 82.6101 38.9974 82.7064 38.8643C82.8026 38.7311 82.9385 38.6317 83.0945 38.5802L107.093 24.7224C107.492 24.5193 107.934 24.4135 108.382 24.4135C108.831 24.4135 109.272 24.5193 109.672 24.7224L138.526 41.3469C138.682 41.3984 138.818 41.4978 138.914 41.631C139.01 41.7641 139.062 41.9243 139.062 42.0886C139.062 42.2529 139.01 42.413 138.914 42.5461C138.818 42.6793 138.682 42.7787 138.526 42.8302Z" fill="#002132"/>
<path id="shadow--inject-1_4" d="M179.524 19.1765L155.525 33.0343C155.126 33.2374 154.684 33.3433 154.236 33.3433C153.787 33.3433 153.346 33.2374 152.946 33.0343L124.111 16.3856C123.955 16.3341 123.819 16.2347 123.722 16.1015C123.626 15.9684 123.574 15.8082 123.574 15.6439C123.574 15.4796 123.626 15.3195 123.722 15.1863C123.819 15.0532 123.955 14.9538 124.111 14.9023L148.115 1.01423C148.513 0.811178 148.954 0.705322 149.401 0.705322C149.849 0.705322 150.29 0.811178 150.688 1.01423L179.524 17.663C179.692 17.7058 179.841 17.8035 179.947 17.9406C180.054 18.0776 180.112 18.2462 180.112 18.4197C180.112 18.5933 180.054 18.7619 179.947 18.8989C179.841 19.0359 179.692 19.1336 179.524 19.1765Z" fill="#002132"/>
<path id="shadow--inject-1_5" d="M54.943 115.884L122.434 154.855C122.834 155.054 123.276 155.158 123.723 155.158C124.171 155.158 124.612 155.054 125.013 154.855L158.68 135.415C158.835 135.362 158.97 135.261 159.065 135.128C159.161 134.994 159.212 134.834 159.212 134.67C159.212 134.506 159.161 134.346 159.065 134.213C158.97 134.079 158.835 133.979 158.68 133.926L91.1828 94.9615C90.7843 94.7584 90.3435 94.6526 89.8963 94.6526C89.4491 94.6526 89.0082 94.7584 88.6098 94.9615L54.943 114.395C54.7877 114.448 54.6529 114.549 54.5575 114.682C54.4621 114.816 54.4108 114.976 54.4108 115.14C54.4108 115.304 54.4621 115.464 54.5575 115.597C54.6529 115.731 54.7877 115.831 54.943 115.884Z" fill="#002132"/>
<path id="shadow--inject-1_6" d="M155.538 86.5949C148.352 82.4479 136.698 82.4479 129.505 86.5949C122.313 90.742 122.319 97.4923 129.505 101.627C136.692 105.762 148.352 105.78 155.538 101.627C162.724 97.4741 162.742 90.748 155.538 86.5949Z" fill="#002132"/>
<path id="shadow--inject-1_7" d="M182.514 99.0907C175.322 94.9376 163.668 94.9376 156.482 99.0907C149.296 103.244 149.29 109.988 156.482 114.117C163.674 118.246 175.322 118.27 182.514 114.117C189.707 109.964 189.701 103.238 182.514 99.0907Z" fill="#002132"/>
</g>
</svg>
