<svg width="626" height="690" viewBox="0 0 626 690" fill="none" xmlns="http://www.w3.org/2000/svg">
<path opacity="0.1" d="M338.456 586.164C302.199 535.451 306.931 462.562 344.111 385.601C381.282 308.659 450.837 227.769 543.981 161.195C606.444 116.55 671.565 84.0247 733.275 64.3452C740.821 71.7728 747.746 79.8535 753.992 88.5898C799.365 152.053 800.4 238.214 765.266 326.284C732.445 408.557 668.076 492.434 578.935 560.872C520.465 596.322 461.043 621.314 405.427 635.278C377.493 625.03 354.585 608.724 338.456 586.164ZM754.805 88.0082C748.628 79.3677 741.792 71.367 734.353 64.0028C744.82 60.688 755.188 57.7435 765.427 55.1727C793.361 65.4207 816.268 81.7269 832.397 104.287C868.654 155 863.922 227.889 826.742 304.85C789.571 381.791 720.016 462.682 626.872 529.256C613.577 538.759 600.161 547.712 586.683 556.11C672.249 488.62 734.182 406.901 766.195 326.654C801.405 238.394 800.444 151.843 754.805 88.0082ZM763.746 54.5657C753.79 57.0965 743.715 59.9788 733.547 63.2094C726.064 55.8907 717.981 49.2086 709.353 43.16C728.97 44.899 747.219 48.6877 763.746 54.5657ZM530.083 645.721C497.669 649.643 467.348 649.278 440.231 644.504C480.757 626.726 521.247 603.835 560.33 575.901C566.841 571.247 573.232 566.511 579.501 561.699C595.591 551.942 611.608 541.395 627.453 530.07C720.707 463.417 790.386 382.405 827.643 305.285C864.89 228.185 869.78 154.854 833.211 103.705C817.209 81.3232 794.618 65.0768 767.147 54.744C785.589 50.1824 803.606 46.8375 821.024 44.7299C905.886 34.4619 976.394 53.574 1012.65 104.287C1048.91 155 1044.18 227.889 1007 304.85C969.825 381.791 900.27 462.682 807.126 529.256C713.981 595.831 614.924 635.455 530.083 645.721ZM559.748 575.087C520.279 603.297 479.378 626.353 438.463 644.185C427.448 642.157 416.97 639.393 407.107 635.885C459.932 622.457 516.119 599.133 571.627 566.407C567.713 569.331 563.753 572.225 559.748 575.087ZM337.643 586.746C353.645 609.128 376.235 625.374 403.707 635.707C385.264 640.268 367.247 643.613 349.829 645.721C264.967 655.989 194.459 636.877 158.202 586.164C121.945 535.451 126.677 462.562 163.857 385.601C201.028 308.659 270.583 227.769 363.727 161.195C456.872 94.6202 555.929 54.9954 640.77 44.7299C664.198 41.8952 686.532 41.2997 707.354 42.9902C716.328 49.1663 724.719 56.0199 732.466 63.5538C670.794 83.2852 605.764 115.806 543.4 160.381C450.146 227.034 380.467 308.046 343.211 385.166C305.963 462.266 301.074 535.596 337.643 586.746ZM705.692 41.8589C685.286 40.3323 663.474 40.9755 640.65 43.7371C555.613 54.0263 456.4 93.7284 363.146 160.381C269.892 227.034 200.213 308.046 162.957 385.166C125.709 462.266 120.82 535.596 157.389 586.746C193.958 637.895 264.934 657 349.949 646.714C367.857 644.547 386.393 641.076 405.371 636.323C415.263 639.932 425.774 642.786 436.828 644.895C375.547 671.395 314.278 686.174 257.79 688.999C163.078 693.737 81.8771 664.874 36.5041 601.41C-8.8689 537.947 -9.9043 451.786 25.2298 363.716C60.3615 275.653 131.637 185.752 230.748 114.913C329.858 44.074 438 5.73761 532.706 1.00055C599.79 -2.35492 660.095 11.1461 705.692 41.8589Z" stroke="white"/>
</svg>
